<?xml version="1.0" encoding="utf-8"?>
<!-- Generator: Adobe Illustrator 17.1.0, SVG Export Plug-In . SVG Version: 6.00 Build 0)  -->
<!DOCTYPE svg PUBLIC "-//W3C//DTD SVG 1.1//EN" "http://www.w3.org/Graphics/SVG/1.1/DTD/svg11.dtd">
<svg version="1.1" id="Layer_1" xmlns="http://www.w3.org/2000/svg" xmlns:xlink="http://www.w3.org/1999/xlink" x="0px" y="0px"
	 viewBox="0 0 200 151" enable-background="new 0 0 200 151" xml:space="preserve">
<g>
	<path fill="#F1CEB4" d="M42.7,128.3c-0.8-2.9-1.6-5.8-2.3-8.8c0-0.7,0-1.5-0.1-2.3c-1.1-10.8-3.1-21.4-5-32c-0.5-2.8-1-5.6-1.4-8.4
		c0-0.3,0-0.6-0.1-0.9c-0.1-2.8-0.2-5.6-0.2-8.4c0-2.7,0.2-5.4,0.4-8c0-0.3,0.1-0.5,0.1-0.8c0.3-0.3,0.7-0.7,0.9-1.1
		c11.5-9.2,33.8-19.3,47.2-21.2c16-2.2,22.2-3.8,38.2-4.4l22.6,3c16.8-3.3,17.9,20.9,27,32.2c9.1,11.4,19.7,26.2,16,41.9
		c-3.8,16.1-24,19.9-38.1,22.5c-16.3,2.9-32.6,5.1-49,7.3c-15.9,2.1-34.2,8-50.1,2.7c-1-0.3-1.9-0.7-2.7-1.1
		C45,136.3,43.9,132.3,42.7,128.3z"/>
	<path fill="#B45E4C" d="M134.4,91.6c-3.7,1.1-13.4,1.9-19.2,3.6c4.2,2.1,10.3,10.5,15.7,10.2c7.5-0.5,6.6-9,1.3-12.4L134.4,91.6z"
		/>
	<path fill="#F07D65" d="M78.5,89.3c10.9-5.8,34.2-0.2,15.4,8.8c-4.7,2.3-13.7,4.2-17.6-0.8C70.7,90,76.7,90.3,78.5,89.3z"/>
	<path fill="#F07D65" d="M145.8,75.8c10.9-5.8,34.2-0.2,15.4,8.8c-4.7,2.3-13.7,4.2-17.6-0.8C137.9,76.5,143.9,76.7,145.8,75.8z"/>
	<path fill="#D45D01" d="M93.9,59.6c-3.4-2.1-10,2-13.8,3.4c3.2,4.2,10.7-0.2,15.2-1.2L93.9,59.6z"/>
	<path fill="#D45D01" d="M135.2,53.8c3.8,0,7.8,0.7,10.9,2.5c-4,2.2-10.6,0.8-15.6,1.8C131.7,55.9,135.2,53.8,135.2,53.8z"/>
	<path fill="#F07D65" d="M121.2,74.8c2.4-0.7,11.5,9.5,2.1,10.4C117.7,85.8,118.7,75.6,121.2,74.8z"/>
	<g>
		<g>
			<g>
				<path fill="#2E313D" d="M87.1,74.2c-1.8,0.6-3.5,2.6-2.9,6.6l1.1-0.1c-0.4-2.8,0.4-4.9,2.1-5.4c0,0,0,0,0,0
					c1.7-0.5,4.4,0.6,6.2,4.3l1-0.5C92.5,74.8,89.2,73.5,87.1,74.2C87.1,74.2,87.1,74.2,87.1,74.2z"/>
			</g>
		</g>
	</g>
	<g>
		<g>
			<path fill="#2E313D" d="M145.9,63.6c-1.8,0.6-3.5,2.6-2.9,6.6l1.1-0.1c-0.4-2.8,0.4-4.9,2.1-5.4c0,0,0,0,0,0
				c1.7-0.5,4.4,0.6,6.2,4.3l1-0.5C151.3,64.2,148,63,145.9,63.6C145.9,63.6,145.9,63.6,145.9,63.6z"/>
		</g>
	</g>
	<path fill="#D45D01" d="M98.1,17.9c11.5-6.5,25.4-7.4,37.3-13.4c-1.9,5.6-5.5,10.1-10.4,13.2c3.1-1.8,7.5-2.4,10.9-4
		c-1.3,2.2-1.6,5.1-3,7.3c2.4,0.1,3.7-1.6,6.1-1.2c0.9,1.6-0.4,3.4,1.8,4.1c8.4-2.6,16.8-4.4,24.5-8.7c1.7,9.2-4.9,15.2-11.1,20.4
		c7.6,3.1,14.8,0.9,22.3-2.3c-13.2,24.6-39.8,16.1-61.9,15.9c-23.6-0.3-43.6,7.5-63.8,19.1c-0.2-0.7-12.3,45-26.5,39.8
		c2.1-3.1,1.6-8.2,2.9-10.9c-2.3,0.5-7.5-0.2-9,0.2c1.7-1.9,3.5-3.8,5.5-5.3c-1.1-1.2-3.5-3.4-3.9-5.1c4.9-4.4,10.9-8.8,14.2-14.5
		c-3.4-0.1-6.5-2-9.3-2.3c1.1-0.8,3.3-1.3,4-2.4c-6.6-5-10.4-12-15.4-18.5c3.4,5.2,9.1,8.5,15.4,7.9c-2.1-1.9-3.7-4.7-5.6-6.5
		c2.7,0.9,9.1,0.5,12.4,1.6c-0.5-2,0.4-6.2,0.1-7.8c8.3-0.4,14.6-4.1,23.1-5.5C54.4,34,47.8,32,41,31c6.8-1.9,13.8-2.4,20.7-0.6
		c-1.4-2.7-2.8-7-4.6-9.1c2,2.4,7,5.1,9.5,7.6c-0.3-9.8,4.7-18.1,14.5-20.3c-3.7,6.1-2.6,12.9,1,19c4.8-8,13.8-17.2,20.8-7
		c2.9-2.3,7.6-2.5,10-4.4L98.1,17.9z"/>
	<g>
		<path fill="#E3BA9C" d="M49.5,88.3c-5.4-4.8-16.7-0.5-16,7.7c0.7,8.4,11.5,7.4,18.7,6.7C50.8,98,49.9,93.1,49.5,88.3z"/>
		<path fill="#D19678" d="M50,91.3c-2.7-1.6-7.5-1.6-8.2,1.9c-0.8,3.9,5.3,6.7,9.4,7.3C50.6,97.5,50.2,94.4,50,91.3z"/>
	</g>
</g>
</svg>
