<svg id="Layer_1" data-name="Layer 1" xmlns="http://www.w3.org/2000/svg" xmlns:xlink="http://www.w3.org/1999/xlink" viewBox="0 0 1242.99 829.02"><defs><style>.cls-1{fill:url(#radial-gradient);}.cls-2{fill:url(#linear-gradient);}.cls-3{mask:url(#mask);}.cls-4{fill:url(#linear-gradient-2);}.cls-5{fill:url(#linear-gradient-3);}.cls-6{fill:url(#linear-gradient-4);}.cls-7{fill:url(#linear-gradient-5);}.cls-8{fill:url(#linear-gradient-6);}.cls-9{fill:#344f63;}</style><radialGradient id="radial-gradient" cx="595.42" cy="587.64" r="407.8" gradientTransform="translate(45.69) scale(0.96 1)" gradientUnits="userSpaceOnUse"><stop offset="0" stop-color="#fff"/><stop offset="0.76" stop-color="#fff"/><stop offset="0.79" stop-color="#fbfbfb"/><stop offset="0.83" stop-color="#eee"/><stop offset="0.86" stop-color="#d8d8d8"/><stop offset="0.9" stop-color="#bababa"/><stop offset="0.9" stop-color="#b9b9b9"/><stop offset="0.91" stop-color="#9b9b9b"/><stop offset="0.94" stop-color="#484848"/><stop offset="0.96" stop-color="#141414"/><stop offset="0.98"/></radialGradient><linearGradient id="linear-gradient" x1="620.74" y1="209.98" x2="620.74" y2="415.08" gradientUnits="userSpaceOnUse"><stop offset="0" stop-color="#96d3ff"/><stop offset="0.19" stop-color="#98d1ff"/><stop offset="0.26" stop-color="#9dcaff"/><stop offset="0.31" stop-color="#a7bfff"/><stop offset="0.35" stop-color="#b4aeff"/><stop offset="0.39" stop-color="#c698ff"/><stop offset="0.42" stop-color="#dc7cff"/><stop offset="0.45" stop-color="#f55dff"/><stop offset="0.45" stop-color="#fe52ff"/><stop offset="0.64" stop-color="#fc53ff"/><stop offset="0.71" stop-color="#f557fd"/><stop offset="0.75" stop-color="#ea5dfb"/><stop offset="0.79" stop-color="#d967f8"/><stop offset="0.83" stop-color="#c373f4"/><stop offset="0.86" stop-color="#a782ee"/><stop offset="0.88" stop-color="#8794e8"/><stop offset="0.91" stop-color="#63a8e1"/><stop offset="0.91" stop-color="#52b1de"/><stop offset="0.92" stop-color="#45bde3"/><stop offset="0.96" stop-color="#1fe1f2"/><stop offset="0.98" stop-color="#08f7fc"/><stop offset="1" stop-color="aqua"/></linearGradient><mask id="mask" x="81.55" y="389.35" width="1080.88" height="396.57" maskUnits="userSpaceOnUse"><rect class="cls-1" x="97.56" y="389.35" width="1043.02" height="396.57"/></mask><linearGradient id="linear-gradient-2" x1="621.99" y1="402.73" x2="621.99" y2="763.02" gradientUnits="userSpaceOnUse"><stop offset="0" stop-color="#53bbff"/><stop offset="0.1" stop-color="#c376ff"/><stop offset="0.16" stop-color="#fe52ff"/><stop offset="0.18" stop-color="#fe58ff"/><stop offset="0.24" stop-color="#fe6cff"/><stop offset="0.29" stop-color="#fe73ff"/><stop offset="0.32" stop-color="#e27eff"/><stop offset="0.38" stop-color="#9c9aff"/><stop offset="0.43" stop-color="#56b6ff"/><stop offset="0.52" stop-color="#46bdff"/><stop offset="0.6" stop-color="#34ceff" stop-opacity="0.75"/><stop offset="0.68" stop-color="#25dcff" stop-opacity="0.52"/><stop offset="0.75" stop-color="#18e9ff" stop-opacity="0.34"/><stop offset="0.83" stop-color="#0df2ff" stop-opacity="0.19"/><stop offset="0.89" stop-color="#06f9ff" stop-opacity="0.09"/><stop offset="0.95" stop-color="#02feff" stop-opacity="0.02"/><stop offset="1" stop-color="aqua" stop-opacity="0"/></linearGradient><linearGradient id="linear-gradient-3" x1="920.62" y1="364.22" x2="920.62" y2="471.23" gradientUnits="userSpaceOnUse"><stop offset="0" stop-color="#96d3ff"/><stop offset="0.09" stop-color="#cf8dff"/><stop offset="0.16" stop-color="#fe52ff"/><stop offset="0.53" stop-color="#fe52ff"/><stop offset="0.56" stop-color="#f457fd"/><stop offset="0.63" stop-color="#da66f8"/><stop offset="0.71" stop-color="#b07df0"/><stop offset="0.8" stop-color="#759de5"/><stop offset="0.85" stop-color="#52b1de"/><stop offset="0.95" stop-color="#1be5f4"/><stop offset="1" stop-color="aqua"/></linearGradient><linearGradient id="linear-gradient-4" x1="783.57" y1="354.14" x2="783.57" y2="468.95" xlink:href="#linear-gradient-3"/><linearGradient id="linear-gradient-5" x1="454.5" y1="359.66" x2="454.5" y2="466.67" xlink:href="#linear-gradient-3"/><linearGradient id="linear-gradient-6" x1="317.2" y1="350.34" x2="317.2" y2="465.15" xlink:href="#linear-gradient-3"/></defs><title>Artboard 1</title><path class="cls-2" d="M542.86,415.08s-7.11-2.36-10.24-1.73c-1,.19-11.77.19-12.74.19-.19,0,3.58-1.21,3.9-3.43,2.28-15.92,1.67-50.55.85-77.6-.09-3.14-6.94-12.93-7.32-16.55-.21-2,2.38-2,3-2.47s1.33-20.06,1.52-23.39c.09-1.46.86-7.61,6-8,8.54-.63,6.54,8.71,6.37,9.41-.13.53,5.7,4.38,5.32,5.33-3.91,9.79-3.14,24.24-3.14,17.78,0-.76,3.81,1.91,3.43,3.05-2,5.92-5.56,10.89-5.71,10.27-.3-1.25-1.07,68.89-.38,70.37,2.66,5.71,8.28,10.39,8.28,10.39a54.87,54.87,0,0,0-.67-18c-2-9-8.73-22.7,1.52-43.49,8.88-18,12.28-16.75,23.59-30.18,4-4.82,25.1-11.92,31.19-18s11.7-8.63,15-20.29c2.11-7.5,3.49-13.95,5.42-18.41a18,18,0,0,0,1.28-10c-.6-3-4.37-5.49-4.18-9.13.17-3.19,5.82-6.78,6.08-10.66.31-4.36-4.78-9-4.56-12.17.44-6.39,4.82-8,5.33-8.37s4.77,2.11,5.32,8.75c.34,4.08-3.6,7.89-3,13.32.24,2.37,5.32,4.4,5.32,8,0,5.2-4.38,8.78-4.94,11.42-.94,4.38,1.76,5.94,2.08,6.56a49.25,49.25,0,0,1,3.26,9.79s6,24.5,10.42,30.54,46.59,20.75,50,28.3c8.37,18.26,15.12,34.22,14.2,40.32-3,19.63-6.85,28.66-6.85,28.66l.69,7.45,4.9-5.12a47.58,47.58,0,0,1,.64,6.41,18.34,18.34,0,0,1-.75,6.5c-.66,1.78,5-1.36,5-4.21,0-4.21,1.9-68.47,1.14-74.94,0-.37-6.25-10.93-2.66-14.07,4.56-4-.68-15.77,2.09-17.12,1.91-.93-5.65-5.59-3.81-5.9,4.57-.76,3.43-12.93,14.27-9.7,2.89.86,4.19,8.63,4.37,10.08.74,5.79,1.14,21.69-4.75,38.23-3.09,8.66.26,19.28,0,28.72-.3,10.93-1.09,30.18-1.71,38-.71,8.78,3.75,11.47,2.66,11.61-7.42.95-18.73,2.48-23.21,2.47-4,0-2.79-5.7-4.94-5.71-3,0-4.38,3.94-4.38,3.94a154,154,0,0,0-43.61-8.07c-24.86-1-47.75,1.09-68.22,3S542.86,415.08,542.86,415.08Z"/><g class="cls-3"><path class="cls-4" d="M83.26,468.8c3,1,242.53-3.34,242.53-3.34l39.88-3,35.34,3,42.66.5,47.88.35,16.48.4-3.79-49,5.39-10.59,7.23,9.1,9.47-6.94,6.81-.19,9.84,5.63,12.5-1.75,43.66-8,44.68,1,4.79-3.25,3,4.5,37.11,5.25,3-3.5,6.31,8L710,407h6.81l6.82,8.69,6.56-7.75,4.79,9.24-.75,52.24,34.32-1.25,46.45.25,25.74-1.5,22,4,28.27-1.5,35.84.5,27.76,2.5,207.91-.28V763s-302.32-5.14-539.58-1.69c-274.61,4-541.3-3.38-541.3-3.38Z"/></g><path class="cls-5" d="M891.34,470.47s-14-13.44-12.93-23.08,12.23-22.06,21.81-27.89,12.49-19.09,16.48-30.43c3.3-9.39,3.77-9.57,1-13.7-1.35-2-1.51-7.46-1-9.64a2,2,0,0,1,3.45-.73l.35,2.76L922,374.1l-2,7.61s10.18,26.88,15.72,28.91c7.61,2.79,6.93,6.08,12.43,10.4,7.1,5.58,13.06,13.31,14,16.74,2.28,8.87-.81,19.92-4.32,24.09-4,4.82-8.11,9.38-8.11,9.38Z"/><path class="cls-6" d="M752.37,468.7S739.94,452.47,741,442.83s12.23-22.07,21.81-27.9,15.33-17.89,17.76-29.67C784.07,368,777,362.93,777,362.93l3.8-8.79,3.3,3.73v12.18s4,24.85,5.58,29.67c1.38,4.39,12.82,12.52,21,16.73,7.49,3.84,14.55,18.84,15.22,22.32,1.27,6.6-1.22,15.25-5.58,18.51-5.07,3.81-15,11.67-15,11.67Z"/><path class="cls-7" d="M425.22,465.91s-14-13.44-12.93-23.08,12.23-22.07,21.81-27.9,12.49-19.08,16.48-30.43c3.3-9.38,3.77-9.57,1-13.69-1.36-2-1.52-7.47-1-9.64a1.94,1.94,0,0,1,3.45-.73l.35,2.76,1.53,6.34-2,7.61S464.06,404,469.6,406.06c7.61,2.79,6.93,6.07,12.43,10.39,7.1,5.58,13.06,13.31,14,16.74,2.28,8.88-.81,19.93-4.32,24.09-4.05,4.82-8.11,9.39-8.11,9.39Z"/><path class="cls-8" d="M286,464.89S273.57,448.66,274.58,439s12.23-22.06,21.81-27.89,15.33-17.89,17.75-29.67c3.55-17.25-3.54-22.34-3.54-22.34l3.8-8.78,3.29,3.73v12.17s4.06,24.85,5.58,29.67c1.39,4.4,12.83,12.52,21.05,16.74,7.49,3.84,14.55,18.84,15.22,22.32,1.27,6.59-1.22,15.24-5.58,18.51-5.07,3.8-15,11.67-15,11.67Z"/><path class="cls-9" d="M936.55,438.75c-.82,1.27-1.58,2.43-2.71,4.16.22,1.13-1.05,2.32-2.05,3.79a8,8,0,0,0-.92,4.32c0,2.21-1.21,3.64-2.58,5-1,.95-3.52-.13-3.85-1.67-.58-2.71-1-5.46-1.3-8.22a12.1,12.1,0,0,0-1.79-5.81c-1,2.12-1.82,4-2.69,5.81-.33.71-.7,1.41-1.07,2.1-1.34,2.52-2.66,5.05-4.07,7.53-.47.83-1.15,2.06-1.84,2.13-1.41.15-2-1.1-2.51-2.41-1.82-4.84-3.78-9.64-5.7-14.44a8.73,8.73,0,0,0-1-1.36c-.49,1.83-.93,3.19-1.21,4.58-.78,3.9-1.48,7.81-2.21,11.71a13.74,13.74,0,0,1-.37,1.4c-.18.64-.39,1.28-.58,1.91-.75-.3-1.73-.41-2.21-1a60.3,60.3,0,0,1-4.27-5.43c-2.59-3.68-5.08-7.43-7.73-11.34-1.45,1.25-1.72,3.08-1.94,4.77-.81,6.08,1.61,11.23,5,16.05a28.77,28.77,0,0,0,1.94,2.6c1.25,1.43,2.35,2.49,4.8,2.31,2.67-.2,5.42,1.27,8.19,1.65a50.1,50.1,0,0,0,8.13.37,46.86,46.86,0,0,0,5.61-.83,1.39,1.39,0,0,1,.73,0c3.72,1.69,7.45-.92,11.18,0,1.42.36,2.85.65,4.27,1,.11,0,.26.2.28.18,2-1.77,4.18-.46,6.21-.36,4.42.2,8.82.81,13.21,1.41a24.12,24.12,0,0,1,5.59,1.66c-1,1.36-1.68,2.44-3.57,1.6-1-.46-2.44-.06-3.67-.12-1.39-.06-2.73.11-3.93-1.17-.53-.56-2.15-.47-3.18.27-.21.15-.54.33-.74.26-1.41-.5-3.22.54-4.35-1.28-.28-.45-1.45-.33-2.19-.69-2.75,1.53-5.95,1.36-8.84.95a13.42,13.42,0,0,0-4.69.34,11.45,11.45,0,0,1-3.15.08c-3.27-.31-6.35.75-9.52,1.18-1.18.16-2.44-.34-3.68-.39-4-.16-8-.18-12-.43-1.32-.08-2.59-1-3.89-1-3,0-5.93.29-8.9.42-2.8.12-5.59.19-8.39.24-3.08.05-6.17.12-9.25,0a23.63,23.63,0,0,1-3.42-.83c-.87-.17-1.8,0-2.65-.24-1.8-.42-3.56-1-5.36-1.43s-3.09-1.43-5.21-.68c-1.54.55-3.65-.57-5.53-.84-1.51-.21-3.17-.71-4.53-.3-2.23.67-4.26,0-6.4-.05-1.79-.08-3.59.28-5.4.34-1.5.05-3,0-4.51-.09a4.43,4.43,0,0,0-3.08.8c-1.14.77-3.12.28-4.73.43-3.27.29-6.55.5-9.79,1-3.89.59-7.71,2.05-11.64,1.72-5.17-.44-10.32.77-15.46-.21a52.35,52.35,0,0,0-5.94-1c-4.27-.33-8.55-.6-12.83-.63-3.79,0-7.58.28-11.37.42a4.58,4.58,0,0,1-1.61-.21,9.75,9.75,0,0,0-7.88,1c-1.61.86-3.35-.47-3.35-2.52s0-4.21.06-6.32c0-3.68,0-7.36.07-11,.08-2.53.45-5,.57-7.57.06-1.38-.2-2.77-.19-4.16,0-2.71.16-5.43.15-8.15,0-3.12-.15-6.23-.18-9.35a12.9,12.9,0,0,1,.29-2.7c.72-3.29-1-5.73-2.91-8-.25-.31-1.83,0-2.37.51a43.66,43.66,0,0,0-3.31,3.84c-1.12,1.3-2.11.82-2.89-.37a38.26,38.26,0,0,1-2.52-4.2,3.47,3.47,0,0,0-2.51-2.08c-1.25-.28-1.66-1-1.6-2.36.23-5.67.26-11.34.43-17,.08-2.45.27-4.89.5-7.33.29-2.94.79-5.87,1-8.81s.13-5.86.17-8.8c0-2.25.06-4.51.07-6.76,0-1.43,0-2.85-.06-4.27-.16-3.5-.39-7-.54-10.5,0-.84.15-1.68.17-2.52.07-3.16-.12-6.35.26-9.47a28.47,28.47,0,0,1,2-6.15c.74-2,1.66-4,2.32-6,.12-.37-.6-1.45-1-1.47a47.58,47.58,0,0,0-6.43.17c-1.48.16-2.92.72-4.39,1-1.67.35-1.88.91-1.3,2.49,1.13,3.05,2.09,6.17,3.13,9.25a4.61,4.61,0,0,0,.58,1.32,2.63,2.63,0,0,1,.26,3.33,5.72,5.72,0,0,0-.55,2.8c0,3.46.26,6.91.26,10.36q0,7.2-.29,14.38c-.12,3.19-.58,6.37-.67,9.56-.12,4,0,8-.05,12-.06,2.3-.49,4.58-.58,6.88a30.67,30.67,0,0,0,.31,4.27c.22,2.39.34,4.81.75,7.17.55,3.15-1,5.46-2.73,7.71-1.28,1.64-2.64,3.21-4,4.76a1.94,1.94,0,0,1-1.2.4,21.36,21.36,0,0,1-2.17,0,4.84,4.84,0,0,1,.21,5.6,3.67,3.67,0,0,0-.07,1.79c.11,1.56.29,3.12.41,4.68a4.47,4.47,0,0,0,2.49,4.19,92.84,92.84,0,0,1,8.78,5.58c1.38.94,2.34.94,3.19-.57.54-.95,1.14-1.86,1.71-2.79l.4.66a62.57,62.57,0,0,1-.41-8.63c.12-1.49,1.43-2.9,2.32-4.27a2,2,0,0,1,1.51.47,30,30,0,0,1,3,4.72,25,25,0,0,1,1.1,4.19,3.62,3.62,0,0,1-1.45,4.4,2,2,0,0,0-.53.7c1.48,2.42,2.86,4.65,4.22,6.9a1.85,1.85,0,0,1-.26,2.42,5.62,5.62,0,0,0-.87,3c-.22,3.78-.23,7.57-.47,11.36a12.94,12.94,0,0,0,2.59,8.54c1.64,2.32,1.32,4.54-.68,6.64a4,4,0,0,0-1.17,2.43c-.08,4.73-.07,9.46.06,14.19.17,5.8.46,11.61.75,17.41.19,3.78.25,3.56,4.07,3.78a27.09,27.09,0,0,0,7.94-.88,2.76,2.76,0,0,1,1.66.09c1.75.81,3.37-.09,3.29-2-.11-2.79-.41-5.57-.49-8.36-.1-3.56-.19-7.13,0-10.69A9.76,9.76,0,0,1,746,488.1a50.45,50.45,0,0,1,2.92-5.24c1.54-2.28,3.65-2.46,5.46-.34,1.12,1.31,1.74,3.05,2.66,4.54.63,1,1.43,1.91,2.09,2.9a1.56,1.56,0,0,1,.27,1.15,11,11,0,0,0,.09,7.54,10.07,10.07,0,0,1,.23,2.71c.11,2.25.23,4.51.29,6.77,0,.95-.17,1.9-.14,2.85.06,1.54,1.22,1.82,2.43,1.82,1.58,0,3.34-.62,4.72-.13,2.71,1,5-.27,7.37-.76.35-.07.68-.2,1.26-.37-.31-3.81-.69-7.62-.9-11.44-.17-3.2-.14-6.41-.19-9.62a.61.61,0,0,1,0-.36c2.62-3.62,3.9-8.29,8.11-10.65a2.44,2.44,0,0,1,2.27.12c2,2,3.79,4.17,5.6,6.33a3,3,0,0,1,.36,1.55c.24,2.89.94,5.84.56,8.65-.58,4.17-.37,8.33-.49,12.49-.08,2.81,1.49,3.92,4.22,3.62a80.28,80.28,0,0,1,8-.59c1.94,0,2.26-1.13,2.17-2.55-.2-3-.57-6-.81-9a66.31,66.31,0,0,1-.4-8,9.32,9.32,0,0,1,1.49-3.62c1.73-3.26,4.68-5.31,7.57-7.41.94-.69,2.14,0,2.87,1.3a58.72,58.72,0,0,1,3.4,5.87,18.76,18.76,0,0,1,1.17,5.78c.14,2-.25,4-.23,6.07,0,4.09.22,8.18.3,12.27,0,1.65,2.38,2,4,1.77s3.32-.69,5-1c3.1-.5,6.18-1.16,9.37-.33.9.23,1.65-.36,1.08-1.59a4.23,4.23,0,0,1-.35-1.76c0-5.39,0-10.79.19-16.17a8.48,8.48,0,0,1,1.62-4.08,76.51,76.51,0,0,1,5.62-7.3c1.69-1.92,3.75-2.13,5-.39,2.58,3.54,5.6,7,6.11,11.55a83.72,83.72,0,0,1,.24,10.63c0,2.48-.37,4.95-.53,7.43C858,513.11,859,514,861,514c2.85-.09,5.7-.09,8.55-.13a28.91,28.91,0,0,0,4-.08,31.34,31.34,0,0,0,4-1.11c-.17-2.41-.35-4.8-.49-7.2-.21-3.47-.23-7-.62-10.41-.33-2.87,1.61-4.85,2.32-7.3.94-3.23,3.4-5.26,5.91-7.17a2.34,2.34,0,0,1,2.25.11c2,2,3.8,4.17,5.59,6.34a3.31,3.31,0,0,1,.44,1.72c.22,2.89.9,5.85.49,8.65-.64,4.25-.34,8.46-.48,12.68-.08,2.35,1.71,3.49,4,3.35,2.13-.13,4.29.27,6.44.23,2.47,0,5-.46,7.42-.43,1.83,0,3.64.66,5.47.73,3.72.15,7.45.08,11.17.13,2.53,0,5,0,7.56.23.46,0,1,1,1.18,1.56.07.21-.73,1-1.14,1-3.16,0-6.33-.09-9.49-.2-4.42-.16-8.84-.37-13.26-.53-.4,0-.8.2-1.2.22-.9.05-1.81.09-2.7.07-1.61,0-3.22-.24-4.81-.15-3.57.21-7.12.7-10.69.81-2.26.08-2.95-.69-2.92-3,.08-7,.17-14.06.48-21.08.16-3.73-.81-6.62-4.35-8.24a2.12,2.12,0,0,0-1.71.11c-3.49,2.24-4.51,5.75-4.45,9.59.1,6.25.45,12.5.61,18.75.07,2.87-.85,3.43-3.66,3-1.16-.16-2.4.36-3.61.48-2.39.23-4.78.47-7.18.57a47.32,47.32,0,0,1-6.63,0,25.18,25.18,0,0,1-4.75-1.18,1,1,0,0,1-.53-.83c.11-4.53.29-9.05.42-13.57s1.15-8.86-1.64-12.85l-2.51-3.57c-2.12,2.75-4.34,5.16-5.94,7.92a9.48,9.48,0,0,0-.71,5.27,88.23,88.23,0,0,1-.43,15.42c-.09,1,0,2.1,0,2.86h-26c0-3.82-.1-7.15,0-10.47.16-4,.56-8.05.73-12.09a7.44,7.44,0,0,0-.56-3.31c-.92-2.09-2.1-4.06-3.24-6.2a3.56,3.56,0,0,0-3.37,2.56,5.11,5.11,0,0,1-1,1.74c-2.27,2.5-1.8,5.45-1.55,8.4.19,2.25.27,4.52.38,6.78s.25,4.79.28,7.18c0,3.69-1.38,4.78-5.11,4.46a18.34,18.34,0,0,0-6.79.27,28.85,28.85,0,0,1-6.71.8c-1.25.05-1.85-.65-2.34-2.13-1.61-4.89.17-9.63.11-14.43,0-4.13,0-8.27-.06-12.4,0-1.38-3.59-5-4.66-4.57A9.26,9.26,0,0,0,780,486.3c-2.21,2.82-1.94,6.23-1.83,9.56.18,5.53.38,11.06.47,16.58,0,2.62-.94,3.17-3.57,2.78a14.14,14.14,0,0,0-3.61.41c-.46,0-.94,0-1.4,0a91.2,91.2,0,0,0-9.51.45c-2.92.43-4.71-.49-4.72-3.44,0-4.73.3-9.46.29-14.19a59.88,59.88,0,0,0-.63-8.46,7.59,7.59,0,0,0-1.69-3c-1-1.34-3.15-.21-3.83,1.49-.78,1.95-1.46,3.87-.65,6.3.7,2.07-.3,4.66.07,6.92.67,4-.76,7.95.29,11.9.37,1.37,0,2.48-1.79,2.61-3,.21-6.09.6-9.13.87-3.28.3-6.55.55-10,.83.13,1.41.29,2.72.37,4,.27,5,.62,9.94.74,14.92.09,3.41-.18,6.84-.23,10.26,0,.95.24,1.91.25,2.86,0,2.09-.51,4.34.07,6.24a14.48,14.48,0,0,1,.19,6.13c-.43,4.11,0,8.2.06,12.29,0,2.7.4,5.39.68,8.08.12,1.17-.27,1.39-1.35,1.08a3.17,3.17,0,0,0-1.95,0c-1.7.74-1.77-.44-1.77-1.46,0-9,.12-18,.08-27,0-9.76-.1-19.52-.39-29.27-.17-5.75-.82-11.49-1.21-17.24-.14-2.22-.16-4.44-.22-6.67-.07-2.6-.13-5.2-.16-7.8-.07-4.42,0-8.85-.21-13.27a15.84,15.84,0,0,1,1.14-6.89c.57-1.44-.14-3.39-.27-5.11-.07-.84-.12-1.67-.16-2.51,0-.29.15-.71,0-.86-1.93-2.09-.69-4.62-.82-6.89a95.36,95.36,0,0,1,.42-11.57,3.34,3.34,0,0,1,.88-1.83c1.3-1.47,1.21-2.07-.06-3.54s-2.67-3-2.39-5.19a2.88,2.88,0,0,1,.4-1.14c1.52-2.43,1.15-8.14-.74-10.46-2.18.87-2.5,2.84-2.52,4.75s.43,4.1.56,6.15a4.15,4.15,0,0,1-.48,1.81c-.78,1.77-1.67,3.49-2.43,5.27-.57,1.32.24,2.07,1.2,2.89a4.44,4.44,0,0,1,1.62,2.46c.32,2.87.33,5.78.47,8.67.18,3.65.36,7.3.51,10.27a23.8,23.8,0,0,0-2.84,2.71c-1.55,2.12-1.43,2.46.52,4.18a2.56,2.56,0,0,1,1.09,2.6,48.16,48.16,0,0,0-.48,6.25q-.26,6.71-.4,13.4c-.3,13.16-.61,26.31-.83,39.47,0,2.6.42,5.2.49,7.8.1,4.18-.21,8.39.15,12.53.39,4.32-.8,8.7.67,13,.22.63-.29,1.49-.32,2.25-.15,3.62-.24,7.24-.36,10.86,0,.9-.18,1.55-1.4,1.65a54.42,54.42,0,0,0-9.13,1.17,27.23,27.23,0,0,1-7.46.45c-1.15,0-1.92-.24-1.94-1.74,0-7.15-.25-14.31-.33-21.47q-.22-20.22-.37-40.45c0-4.47.12-8.94,0-13.4-.17-5-.71-10-.84-15.06-.13-5.5,0-11,.06-16.53a2.94,2.94,0,0,0,0-.73,4.41,4.41,0,0,1,1.22-5c1.27-1.18-.06-2.31-1-2.89-2.34-1.48-2.23-3.54-2-5.86a37.21,37.21,0,0,0,0-5.28c-.19-6.54-.36-13.09-.64-19.63-.09-2.1,1.21-3.1,2.78-4.15A10.61,10.61,0,0,1,696.1,431c-.47-1.78-.49-3.68-1-5.46a4.13,4.13,0,0,0-1.69-2.4c-1.59-.83-1.31-1.78-.67-2.93,1.49-2.69.77-8.36-1.31-10.23a8.33,8.33,0,0,0-1.88,10.17c.57,1.17.75,2.56-.85,3.37a3,3,0,0,0-1.89,2.6,29.7,29.7,0,0,1-1,3.42c-.11.48,0,1.34.32,1.54,2.53,1.55,2.19,4,2.21,6.41,0,4.14,0,8.28,0,12.43,0,.9,0,1.81,0,2.72,0,2.28,0,4.56,0,6.83a9,9,0,0,1-.45,3.51c-.44.93-1.56,1.52-2.36,2.27a6.1,6.1,0,0,0-1,1c-1.67,2.58-2.58,2.86.22,5a2.35,2.35,0,0,1,.74,1.71c0,2.87-.27,5.75-.31,8.62-.05,4.24,0,8.49,0,12.73q-.09,14.73-.21,29.47c-.05,7-.11,14-.14,20.94,0,4.65,0,9.31,0,14,0,3-.1,6,0,9,.08,2.19.66,4.37.64,6.54,0,3.89-.36,7.77-.57,11.66,0,1-.38,1.35-1.53,1.42-5.51.33-11.09.44-16.49,1.42-3.84.7-7.54.09-11.3.28-1.57.08-2.67-.24-2.67-2.24,0-2.65-.38-5.31-.4-8,0-7,.11-14.08,0-21.11,0-4-.45-8.09-.39-12.13.05-2.7.83-5.37,1-8.07.23-4.79.25-9.6.31-14.39s.11-9.45.1-14.17c0-11.77-.08-23.55-.22-35.32,0-3.35,1.44-5.93,4-8.54a27.24,27.24,0,0,0-3.64-2.82c-1.5-.8-2.56-1.68-2.51-3.52.15-4.73.39-9.47.35-14.2s-.52-9.21-.47-13.81c0-1.29,1.07-2.71,2-3.81.57-.71,1-1.13.8-2.14a4.49,4.49,0,0,1,.44-2.25c.48-1.3.34-2.38-1-2.94s-3.05-1.1-4.92-1.76c2.82-3.39,2.72-7.16,1.59-11a11.41,11.41,0,0,0-1.43-2.44c-4.08,3.58-6.22,7.78-2.87,13.35-1.4.51-2.76,1.07-4.16,1.51a2.77,2.77,0,0,0-2,2.36c-.19.91-1,2-.72,2.61s1.53,1.05,2.38,1.49c1.85,1,1.6,2.82,1.71,4.37.31,4.41.49,8.83.6,13.25.1,4.22.19,8.44,0,12.65-.06,1.15-1.14,2.32-1.9,3.37-1.08,1.49-2.33,2.87-3.46,4.32-.79,1-.73,1.95.51,2.51,2.3,1,2.55,2.77,2.36,5.08-.41,5-.62,10-.69,15-.11,6.9,0,13.81,0,20.72-.07,5-.41,10-.51,15.08-.14,7.42-.08,14.84-.29,22.25-.09,3.36-.73,6.7-.91,10.07a60.79,60.79,0,0,0,.31,6.16c.1,2.22.16,4.43.25,6.65.05,1.48.13,3,.18,4.43.06,2.09.2,4.18.14,6.27-.11,3.29-.42,6.57-.52,9.85,0,1.35-.22,2-1.87,2-6,0-12,.22-17.94.4-1,0-2,.49-3,.44-3.18-.16-6.37-.42-9.54-.77a1.74,1.74,0,0,1-1.74-1.91c0-4.42-.27-8.84-.32-13.25-.07-7,0-13.91-.09-20.86,0-3.68-.35-7.35-.28-11,.05-2.75.58-5.5.79-8.25.18-2.54.25-5.08.33-7.62.23-7.82.57-15.64.63-23.46.05-7.21-.24-14.43-.32-21.65-.05-4.55-.08-9.1.07-13.64,0-.86.93-1.7,1.42-2.55.4-.69,1.23-1.51,1.08-2.05s-1.22-1-1.95-1.31-2-.25-2.31-.78a7.72,7.72,0,0,1-1.27-3.56c-.29-3.68-.39-7.39-.49-11.09-.08-2.4,0-4.8-.06-7.2-.08-2.89-.24-5.78-.31-8.67a8.55,8.55,0,0,1,.21-3.37c.33-.77,1.47-1.19,2.42-1.9a4.55,4.55,0,0,0-1.2-.47c-1.37-.2-1.88-.87-1.6-2.25.22-1.05.64-2.24.33-3.16a14.23,14.23,0,0,0-2.19-3.28c.49-1.3,1.09-2.78,1.6-4.29a5.86,5.86,0,0,0-1.58-6.32,2,2,0,0,0-1.89,0c-2.14,1.71-3.47,6.17-1.61,9.18.83,1.34.28,2.12-.87,2.58-2.49,1-4,2.52-3.92,5.42,0,.51-1,1.06-1.59,1.59l-1.08,1c.42.35.79.92,1.26,1,2.4.48,3.28,1.89,2.66,4.36a4.07,4.07,0,0,0-.12,2.15c1.1,3.15.11,6.32.29,9.47.2,3.69.8,7.38.83,11.07,0,1.81.58,3.92-1,5.52-.41.42-.9,1-1.4,1-2.82.28-3.61,2.9-5.61,4.31a60.49,60.49,0,0,1,5.47,4.47,5,5,0,0,1,1.09,3.11c.26,6.47.5,12.95.52,19.42,0,5.33-.34,10.65-.43,16-.06,3.27.06,6.54.08,9.81,0,4.41,0,8.82.08,13.23.18,7.21.5,14.42.69,21.64a13.4,13.4,0,0,1-.44,5c-1.72,4.44-.11,8.87-.35,13.29-.18,3.25,0,6.52-.06,9.77,0,2.11-.28,4.23-.13,6.32.1,1.43-.73,1.8-1.66,1.87A77.35,77.35,0,0,1,581,589c-4.73-.23-9.43-.85-14.16-1.22a49.05,49.05,0,0,0-6.64-.18c-1.41.08-1.65-.6-1.74-1.64q-.51-6.48-1-13a5.65,5.65,0,0,1,.13-1.93c.69-2.36.3-4.72.21-7.1-.1-2.83.07-5.68,0-8.52,0-1.62-.24-3.23-.34-4.85-.34-5.62-.65-11.25-1-16.87-.25-4-.67-7.92-.84-11.9-.14-3.36,0-6.74,0-10.12s-.2-6.89-.14-10.34c.08-4.05.57-8.1.48-12.14-.11-4.21-.59-8.43-1.12-12.62a7,7,0,0,1,1.36-5.42c1.74-2.3,1.89-3-.32-4.69-2.39-1.86-1.53-4.15-1.33-6.23.51-5.23-.27-10.39-.4-15.58-.11-4.46,0-8.92,0-13.44,1.89-.33,2.53-1.26,1.61-2.95-.08-.16-.23-.35-.2-.5C556,425.17,554.3,425,552,425c.25-1.28.2-2.56.76-3.48,1.59-2.64.29-5-.43-7.43-.41-1.37-1.49-1.19-2.42-.35-2,1.82-2.84,6.21-1.66,8.63,1,2,.91,2.14-1.17,3.05a12,12,0,0,0-2,1.23,1.69,1.69,0,0,0,.19,3c2.59,1.06,3.89,2.42,3.35,5.64s0,6.36.05,9.56c.08,4.3.16,8.6.27,12.91.06,2,.14,4.11.29,6.16A1.9,1.9,0,0,1,548,466c-3.3,1.81-3.76,3.85-1.67,7,1,1.44,2,2.86,3,4.3.18.27.47.67.39.89-1.36,3.6-.53,7.26-.08,10.81,1.1,8.8.86,17.61.92,26.43,0,3.45.33,6.88.4,10.32,0,1.86-.21,3.72-.22,5.58,0,4.91,0,9.81.1,14.72q.12,11.36.28,22.71c.06,4.11.17,8.22.18,12.33a8.67,8.67,0,0,1-.44,3.22,2.41,2.41,0,0,1-1.79,1.06c-5,.26-10-.52-14.91-1.22-3.33-.48-6.67-.83-10-1.15-1-.09-1.63-.3-1.69-1.41-.32-5.68-.77-11.36-.94-17-.15-5.07.17-10.16-.06-15.23-.18-3.91-1-7.79-1.35-11.7a39.92,39.92,0,0,1-.05-6c.19-3.72.69-7.44.74-11.16.07-4.25-.36-8.51-.3-12.76.07-5.21.5-10.42.63-15.63.09-3.73,0-7.47-.16-11.19-.16-2.88.23-5.57,2-7.86,1.28-1.67,1.12-2.95-.48-4.13-1.11-.81-1.3-1.62-1-3s0-3.11,0-4.68c-.14-3.69-.21-7.39-.45-11.07-.15-2.21-.61-4.4-.87-6.61-.07-.58-.12-1.39.2-1.74,1.39-1.55.67-3.2.09-4.59a6,6,0,0,1-.08-5,5,5,0,0,0-1.88-6.19,2.07,2.07,0,0,0-1.8,0c-1.92,1.22-3.23,2.91-1.88,5.83.72,1.56.26,2.79-.4,4.13a25,25,0,0,0-2,4.58c-.17.65.63,1.56,1,2.35.46,1,1.24,2,1.32,3,.55,6.84,1,13.68,1.37,20.53.13,2.36-.25,4.58-2.54,6a1.61,1.61,0,0,0-.35,1.55c.84,1.31,1.87,2.49,2.8,3.73a2.4,2.4,0,0,1,.62,1,42.26,42.26,0,0,1,.31,5.5c-.12,2.58-.73,5.16-.71,7.73,0,5.47.37,10.94.58,16.41.16,4.21.43,8.42.43,12.63,0,3.53-.38,7.06-.49,10.59,0,1.91.16,3.82.18,5.73,0,1.62-.16,3.24-.11,4.85.13,3.82.8,7.68.4,11.44a72.8,72.8,0,0,0,.12,12.62c.33,4.76.81,9.5,1.18,14.26.07.8.59,2-.92,2.08-1.24.06-1.59-.75-1.64-1.9q-.72-17.32-1.51-34.65c-.09-2.06-.17-4.13-.38-6.19-.07-.64-.77-1.24-.77-1.86,0-1.58.25-3.16.34-4.74a34,34,0,0,0,0-3.64c-.26-4.8-.56-9.6-.83-14.11-5.36-.62-10.67-1.52-16-1.73-2.25-.09-2.44-1-2.44-2.53,0-4.91.13-9.82.21-14.73,0-3.67.72-7.44-1.64-10.74-1.44-2-3.76-1.83-4.57.55-.69,2-1.56,4-.7,6.52.73,2.15-.23,4.81.15,7.14.63,3.93-.7,7.85.29,11.75.46,1.82-.2,2.59-2.14,2.63-3.67.09-7.35.14-11,.11-3.26,0-6.52-.14-9.78-.29-1.38-.06-2.63-2.06-2.54-3.66q.45-7.44.8-14.88c.11-2.3.2-4.59.2-6.89a6.44,6.44,0,0,0-4.58-6.6,1.65,1.65,0,0,0-1.26.26c-3.56,2.53-4.64,6.14-4.49,10.32.25,6.47.5,12.94.62,19.42.05,2-1,2.55-3.06,2.56-4,0-8,.31-12,.45-1.29,0-2.58,0-4.22,0,0-3.43-.12-6.69,0-9.94.19-4.22.63-8.42.88-12.63a6.62,6.62,0,0,0-.37-3c-1-2.2-2.16-4.31-3.29-6.5a3.83,3.83,0,0,0-3.52,2.83,4.65,4.65,0,0,1-.85,1.6c-2.38,2.6-1.88,5.69-1.65,8.78.16,2.1.13,4.22.21,6.32.1,2.52.07,5.05.38,7.54.46,3.61-3.62,6.2-6.91,6-3.75-.22-7.54.26-11.3.17-2.88-.07-5.88.47-8.57-1.07a1.92,1.92,0,0,1-.95-1.29q.12-7.41.41-14.82c.21-5.16.24-10.24-3.95-14.15-.17-.16-.35-.3-.57-.49-1.35,1.67-2.61,3.29-3.93,4.84-2.62,3.08-2.5,6.7-2.42,10.43.1,4.14-.4,8.3-.19,12.43.16,3.16-1.36,4.21-4,4.46a15.47,15.47,0,0,1-2.63-.07c-3-.22-6.07-.52-9.12-.67-2.51-.12-5-.19-7.54-.08-1.66.08-2.2-.71-2.21-2.12,0-3.64-.1-7.29,0-10.94.08-4.29.36-8.58.42-12.87a6.52,6.52,0,0,0-4.58-6.09,1.7,1.7,0,0,0-1.27.29c-3.54,2.39-4.61,6-4.54,10,.1,6.46.44,12.92.57,19.38,0,2.21-.92,2.88-3.12,2.71-1-.08-2,.09-3,0-2.88-.17-5.74-.48-8.62-.57a18,18,0,0,0-3.45.51c-.29,0-.6.22-.86.16-5.38-1.36-10.78-.45-16.19-.2-2.06.1-4.13-.08-6.21-.1-.64,0-1.29.14-1.94.14a3,3,0,0,1-1.57-.2,1.41,1.41,0,0,1,0-1.37,2.19,2.19,0,0,1,1.46-.66c4.72-.2,9.44-.38,14.17-.48a54.37,54.37,0,0,0,9.06-.8c2.69-.51,5.61.27,8.43.35,2.49.07,5,0,7.49-.09,1.24,0,1.46-.88,1.38-1.88-.29-3.41-.69-6.81-.87-10.23-.16-3-.83-6.31.09-9,1.3-3.87,2.88-7.87,6.3-10.68,2.82-2.32,2.84-2.4,5.39.29a33.81,33.81,0,0,1,3.18,3.69,7.08,7.08,0,0,1,1.29,3.06c.31,2.64.41,5.31.46,8,0,.78-.62,1.57-.62,2.36q0,5.32.14,10.65c.07,2.14.85,2.86,3,3.4,4.78,1.22,9.65.54,14.47.63,1.43,0,2-1.13,1.66-2.57a13.61,13.61,0,0,1-.12-2.71c0-2.19.05-4.37,0-6.55,0-3.09-.22-6.19-.07-9.28a7,7,0,0,1,1.36-3.29c1.76-2.59,3.64-5.1,5.54-7.6a6.09,6.09,0,0,1,1.66-1.4,2,2,0,0,1,2.78.41c3.13,3.17,6.14,6.51,6.79,11.07a81.05,81.05,0,0,1,.53,10.8c0,2.61-.36,5.22-.52,7.84-.12,2,.91,2.75,2.9,2.4a27,27,0,0,1,9.53.21,54,54,0,0,0,5.37.7c1.57.12,2.37-.69,2.28-2.32q-.36-6.06-.68-12.13a76.06,76.06,0,0,1-.25-8c.07-1.23.92-2.45,1.52-3.62,1.73-3.35,4.72-5.49,7.61-7.67,1.11-.84,2.19-.2,2.69.9,1.54,3.4,3,6.84,4.41,10.29a4.62,4.62,0,0,1,.22,1.79c-.08,4.69-.21,9.37-.27,14.06,0,1.37.15,2.74.14,4.11s.73,1.73,1.87,1.61c1.91-.19,3.81-.47,5.73-.67,1.65-.18,3.31-.31,5.3-.5-.19-2.51-.39-4.94-.55-7.38a91.23,91.23,0,0,1-.57-9.89,20.36,20.36,0,0,1,8-15.64,2.46,2.46,0,0,1,2.37.06,80,80,0,0,1,5.51,6,3.13,3.13,0,0,1,.47,1.7c.24,2.95.91,6,.53,8.84-.56,4.32-.19,8.62-.34,12.92a3.34,3.34,0,0,0,3.31,3.37,2,2,0,0,1,.71.09c2.8,1.53,5.62.62,8.45.15a3.61,3.61,0,0,1,1.6.08c1.92.57,3.08-.19,3-2.15-.2-6.23-.47-12.47-.65-18.7a5.39,5.39,0,0,1,.51-2.48c1.23-2.43,2.48-4.87,3.94-7.17,1.59-2.51,4.29-2.52,6.07-.07a43,43,0,0,1,2.22,4c.2.35.64.56.87.9.84,1.19,1.7,2.16,1.16,4s.05,3.86.18,5.8c.07,1,.31,2,.38,3,.17,2.44.3,4.88.41,7.32,0,.47-.26,1-.2,1.41.12.92.1,2.2.67,2.64a2.24,2.24,0,0,0,3.11.18c.22-.22.77-.16,1.15-.11,3.18.44,6.35.91,9.77,1.4-.15-1.8-.34-3.12-.35-4.44,0-4.59.05-9.18-.07-13.76-.07-2.4-.76-4.81-.64-7.18.15-2.89.2-5.58-1.76-8-.65-.81-.8-2-1.27-3a2.85,2.85,0,0,1,.71-3.64c3-2.38,3.1-5.57,3.08-8.95,0-5,.25-9.9.14-14.84a5.82,5.82,0,0,0-1.68-3.55,4.62,4.62,0,0,1-.58-5.52c1.27-2.24,2.88-4.46,1.78-7.48-.82-2.25.21-4.41,1.61-6.27.8-1.06,1.68-2.06,2.52-3.08,3.09,1,5.68,5.25,5.74,8.9a56.91,56.91,0,0,0,.71,8.35,14.42,14.42,0,0,0,1.81,4.09,2.34,2.34,0,0,0,1.46-.48c1.79-2,3.3-4.37,5.29-6.18a39.09,39.09,0,0,1,6.66-4.61c1.63-1,2.76-1.65,2.45-4-.46-3.59-.13-7.27-.28-10.91,0-.85-.42-2.13-1-2.4s-1.81.43-2.72.38a47.53,47.53,0,0,1-5.31-.66c-.16,0-.31-.62-.31-.94,0-3.11,0-6.21.07-9.32.07-3.5.19-7,.3-10.5.09-3.09.2-6.18.3-9.27.11-3.39.3-6.78.3-10.17s-.29-6.61-.31-9.91c0-4.45.1-8.89.15-13.33,0-2.46.13-4.93.05-7.38-.11-3.11-.48-6.21-.51-9.32a19.55,19.55,0,0,1,.82-4.22c.06-.29.4-.62.33-.82-1.31-3.51,1.7-5.61,2.73-8.35a26.26,26.26,0,0,1,1.88-3,1.22,1.22,0,0,0-.87-2c-3.48-.26-6.84-1.9-10.4-1.08-1.91.44-3.7,1.44-5.81.87-.42-.11-1.08.65-2.25,1.41,2.63,0,2.43,1.75,3,3a69,69,0,0,0,3.3,6.88,3.39,3.39,0,0,0,2.19,1.22c3.09.59,3.91,2.48,2.87,5.42a22.26,22.26,0,0,0-.82,6.4c-.18,4.11-.29,8.23-.24,12.34,0,2.23.65,4.45.64,6.67,0,3.16-.35,6.31-.52,9.47-.08,1.41-.1,2.82-.11,4.23,0,3.62.05,7.24-.08,10.85-.13,3.45-.51,6.9-.7,10.35-.17,3-.11,6-.36,9.06a32.55,32.55,0,0,0,.26,9.6c.57,2.69-.16,3.17-2.91,3.45a14,14,0,0,0-4.17,1.45c-1,.46-1.9,1.23-2.91,1.73s-3.48-1.63-3.85-2.88a8.29,8.29,0,0,0-1.64-3c-1-1.11-2-1-2.94.36s-2.27,2.64-3.34,4a2.92,2.92,0,0,0-.75,1.76,46,46,0,0,0,1.14,8.23c1.21,4.17.56,8.36.65,12.54.06,2.5-.51,5-.49,7.51,0,1.53.72,3,1,4.58a35,35,0,0,1,.37,4.22c.12,3,.1,5.93.31,8.89a7.58,7.58,0,0,0,1.05,2.35c-.46.52-.88,1.06-1.36,1.53a3.3,3.3,0,0,1-.87.48c-.81-1.35-2.37-1-3.52-1.45-1.93-.7-4.19-1.39-6.07-1-1.12.24-1.88.69-2.88-.27l-.34.47,1.55,1.89-.32.42-2.94-2.29-.82,1.6c-.34-.25-.79-.73-.93-.65-3.09,1.66-6.28.45-9.33.09-1.36-.16-3.1-1.3-4.22-.71-2.17,1.13-4.05,0-6-.06a3,3,0,0,1-1.42-.68c-3.86.06-7.36.1-10.85.17a7.86,7.86,0,0,0-2.34.22c-1.92.65-3.81.36-5.74.22a12.93,12.93,0,0,0-3.39.53,27,27,0,0,1-3.71.79c-1.71.09-3.44-.15-5.15-.18-3.17-.08-6.35,0-9.51-.2-1.45-.08-2.87-.68-4.33-.86a23.17,23.17,0,0,0-5.5-.26A55.83,55.83,0,0,1,407,468c-3.5-.3-7.05.16-10.58.14a29.93,29.93,0,0,1-3.91-.68,25.25,25.25,0,0,1-2.63-.17c-2.31-.58-4.58-1.29-6.88-1.92-1-.29-2.08-1.06-3.16.05-.14.14-.81-.28-1.25-.35-1.87-.32-3.74-.66-5.62-.87-.65-.07-1.34.36-2,.37-5.9.09-11.8.11-17.7.23a14.14,14.14,0,0,0-2.86.68,13,13,0,0,1-2.28.46c-2.85.12-5.71,0-8.55.27-2.59.25-5.3.23-7.62,1.84a3.66,3.66,0,0,1-1.87.29c-2.55,0-5.1,0-7.64.05-.69,0-1.36.37-2,.39-3.56.07-7.19.56-10.65,0-7.76-1.2-15.48-2.16-23.34-1.38-4.64.47-9.29.76-13.93,1.11a21.12,21.12,0,0,1-4.62.15c-2-.32-1-2.12-1.15-3.29s.64-1.4,1.77-1.47c3-.19,6-.67,9-.92,1.53-.13,3.08,0,4.92,0-1.93-2.59-3.92-4.9-5.49-7.46a18.3,18.3,0,0,1-2-5.48c-.56-2.38-.35-5-1.23-7.24-3-7.5,1.07-13.07,5.07-18.37a80,80,0,0,1,10.59-10.88,56.37,56.37,0,0,1,9.35-6.82c4.17-2.42,6.61-6,8.6-10.19,1.26-2.61,2-5.53,4.47-7.46.22-.18.05-.85.07-1.3.09-2.95-.4-6.09.48-8.77a12.62,12.62,0,0,0,.74-5.76,5.37,5.37,0,0,0-1.86-2.83,21.41,21.41,0,0,0-3.23-1.9c-.27-.17-.63-.67-.56-.81a1.45,1.45,0,0,1,.89-.68,15.12,15.12,0,0,1,2.33-.27c2.25-.15,3.24-2.12,2-4.11a16.84,16.84,0,0,1-2.07-3.55c-.28-.92.23-2.08.42-3.14.07-.39.38-.78.35-1.15-.17-2.31,1.26-3.52,3-4.49.92-.51,3.22.56,3.51,1.72,1,4,2.06,8,1,12.12a9.07,9.07,0,0,0,0,2.17,34.45,34.45,0,0,1,3.67-.52,4,4,0,0,1,2.06.47c1,.58,1,1.7-.16,2.24-1.4.67-2.91,1.12-4.54,1.73.05.1.22.52.42.93a13.57,13.57,0,0,1,1.14,2.33,27.89,27.89,0,0,1,.73,4.26,83.13,83.13,0,0,1,.63,9.44,17,17,0,0,0,2.95,10.58,22.92,22.92,0,0,0,4.23,3.92c1.92,1.61,4,3.06,5.85,4.69a32.52,32.52,0,0,0,9.38,5.18c4.68,1.87,7.85,5.35,10.51,9.45a45.23,45.23,0,0,1,3.39,5.26,34.51,34.51,0,0,1,2,6.21c.71,2.83,1.26,5.69,1.89,8.54.07.29.31.63.22.85a68.5,68.5,0,0,1-3.63,8.79c-2,3.55-5.78,5.15-9.37,7.1a4.83,4.83,0,0,0,.5.22,5.21,5.21,0,0,0,.64.15l-1.16,2.73a16.4,16.4,0,0,0,3.52.19c3.06-.5,6.06.44,9.17.12s6.49-.3,9.74-.67c1.29-.15,2.66.6,4,.72,2,.18,3.94.14,5.91.23a13.87,13.87,0,0,1,2.66.27c2.83.71,5.62,1.67,8.49,2.22a28,28,0,0,0,9.7-.23,15.62,15.62,0,0,1,2.13.16,64.49,64.49,0,0,1,7.86-.06,12.51,12.51,0,0,0,6.41-1.06,49.65,49.65,0,0,1-3.32-4.31c-1.89-3.13-3.7-6.31-5.37-9.57a8.18,8.18,0,0,1-.41-3.17,25.33,25.33,0,0,1-.08-4.35c.37-3.26,2.21-5.85,4.16-8.37.37-.48.74-1,1.09-1.45.7-1,1.38-2,2.06-2.94a3.62,3.62,0,0,0,.59-.89c1.09-3.41,3.63-5.44,6.56-7.23,1.66-1,3-2.48,4.62-3.61,1.32-.93,2.78-1.64,4.16-2.47,3.93-2.38,6.28-6,8.09-10.1a90.44,90.44,0,0,0,5.26-16.15c.35-1.49,1.53-2.75,2-4.22a48.79,48.79,0,0,0,1.8-6.6c.06-.28-1-1-1.7-1.19a12.33,12.33,0,0,0-2.6-.26l-.09-1,3.61-.82,2-.48c-.31-.6-.58-1.22-.94-1.79a18.52,18.52,0,0,0-1.47-2c-1.45-1.71-.9-3.61-.59-5.49a9.52,9.52,0,0,0,.31-2c-.07-1.73,1.1-2.76,2.11-3.85a1.28,1.28,0,0,1,1.27-.08c.68.56,1.54,1.22,1.73,2a58.3,58.3,0,0,1,1.71,8.73c.13,1.32-.73,2.73-1.18,4.23l3.57.94V375c-.73.3-1.46.61-2.2.89-.39.16-1.14.3-1.13.41,0,.56.1,1.4.46,1.61,2.35,1.38,2.16,3.65,2.38,5.87a15.39,15.39,0,0,0,1,4.22c1.59,4,3.1,8,6.14,11.25,1.45,1.54,2.73,3.23,4.19,4.76a15.42,15.42,0,0,0,5.08,4.06c1.85.79,3.33,2.53,4.82,4,2.13,2.12,4.07,4.42,6.19,6.54.8.79,2.08,1.13,2.78,2,2,2.4,3.76,5,5.63,7.46a2.16,2.16,0,0,0,.57.63c1.77.9,1.82,2.55,1.91,4.21a3.42,3.42,0,0,0,.21,1.38,14.52,14.52,0,0,1,1.89,9.69c-.3,2.32-1.8,3.64-2.63,5.78l1.39,1.24c-.51.93-1.52,1.94-1.57,3-.12,2.41-2.3,2.88-3.46,4.27-1.45,1.75-3.12,3.33-4.69,5-1.27,1.33-2.93,1.33-3.83-.13l7.6-5.68,2.62-6.08-.56-.39a9.7,9.7,0,0,1-1.59,1.43,14.2,14.2,0,0,1-2.28.89,12.61,12.61,0,0,1-.46-2c-.18-3.47-.24-7-.48-10.43a22.87,22.87,0,0,0-.87-3.66l-.57.05c-.39,1.28-.78,2.55-1.18,3.83a3.62,3.62,0,0,1-.39,1.19c-2.28,2.77-4.52,5.57-7,8.19a3,3,0,0,1-2.65.28,3.16,3.16,0,0,1-1.68-2,56.14,56.14,0,0,1-.67-6.24c-.17-2.12-2.43-7.41-3.77-8.56l-2.53,3.68a23.91,23.91,0,0,0-1.21,2.68,5.26,5.26,0,0,0,.07,1.74l-1.37-.45c-.22,1.8-.5,3.46-.6,5.14-.14,2.24-2.83,4.81-4.78,4.49s-2.14-2-2.38-3.6c-.5-3.22-.93-6.46-1.47-9.67a12.91,12.91,0,0,0-1-2.37,7.19,7.19,0,0,0-.59.77q-2.21,4.31-4.4,8.6c-1.13,2.24-2.2,4.52-3.4,6.71-.36.65-1.33,1.63-1.64,1.51a4.12,4.12,0,0,1-2.18-1.85c-1-2.25-1.63-4.66-2.54-6.95-1-2.64-2.24-5.23-3.4-7.83a8.26,8.26,0,0,0-1-1.31c-.5,1.8-.95,3.16-1.24,4.56-.81,3.89-1.54,7.79-2.31,11.68a11.2,11.2,0,0,1-.36,1.41c-.22.63-.48,1.25-.72,1.87-.7-.31-1.61-.43-2.06-.95-1.59-1.83-3.09-3.76-4.5-5.73-2.53-3.52-5-7.1-7.57-10.82a7.67,7.67,0,0,0-1.89,4.87,17.69,17.69,0,0,0,2.75,12.13c1.71,2.56,3.51,5.05,5.43,7.45a3.32,3.32,0,0,0,2.29.79,42.37,42.37,0,0,1,9.4,1.57c2.64.68,5.55.41,8.34.36,1.67,0,3.32-.53,5-.67.87-.08,1.76.25,2.64.24,1.35,0,2.69-.18,4-.24,2.24-.1,4.48-.22,6.72-.24,1.83,0,3.66.1,5.48.18,2,.09,4,.15,6.06.33,3.59.31,7.18.64,10.76,1.09,2.08.26,4.13.77,6.21,1.15a3.76,3.76,0,0,0,1.06,0c1.57-.16,3.14-.44,4.72-.48,2.81-.08,5.63,0,8.71,0-.05-1.16-.12-2.27-.15-3.37-.07-3.7.41-7.51-.33-11.08-.83-4.06-.56-8.08-.86-12.11-.47-6.53-1-13.05-1.53-19.58a12.63,12.63,0,0,1-.33-2.14c.11-1,.17-2.28.78-2.81a3.37,3.37,0,0,0,1.32-3.3,1,1,0,0,1,.28-.75c1.48-1.49,3-2.93,4.48-4.44.73-.75,1.45-.72,2,0,.93,1.31,1.73,2.71,2.56,4.1a10.6,10.6,0,0,0,.88,1.75c.88,1,1.78,1.73,3.19.46.88-.8,2.21-1.08,3.29-1.69,2-1.1,2.34-2.42,2-4.68a27.2,27.2,0,0,1-.29-6.49,48.93,48.93,0,0,0,.37-10.82c-.18-1.57.59-3.23.58-4.84,0-3.14-.32-6.28-.37-9.41,0-2.72.12-5.44.16-8.15,0-2.33,0-4.66,0-7,0-1.69.26-3.38.22-5.07-.07-3.31-.3-6.61-.43-9.92-.15-3.61-.21-7.23-.41-10.84a11.54,11.54,0,0,0-.73-3.15c-.68-1.86-1.47-3.68-2.22-5.52a3.64,3.64,0,0,0-.22-.49c-1.06-1.76-2.12-3.5-3.24-5.34l1.64-.43-3.86-4.28,4.68-1.49c.3-3.88.66-7.78.85-11.69,0-.54-.62-1.25-1.13-1.66a13,13,0,0,0-1.82-.81,1.17,1.17,0,0,1-.53-.85c0-.17.46-.37.72-.56l2.08-1.46-2-1.06c.81-.38,1.21-.6,1.63-.77,2.68-1.07,2.68-1.07,2.15-3.89A8.62,8.62,0,0,1,524,282c.82-.45,1.67-.84,2.07-1-.31-2.39-.51-4.57-.9-6.71-.11-.63-.73-1.18-1.15-1.73s-.79-.92-1.45-1.66h3.22c.1-1.8.19-3.54.28-5.27,3.17.43,3.71,2.85,4.53,5.05.34.94.69,1.88,1.13,3.06a6.06,6.06,0,0,0-1.45,1.83,13.89,13.89,0,0,0-.71,4.09c0,1.81,2,1.48,2.85,2.36s2.11,1.42,3,2.27a6.34,6.34,0,0,1,1.37,7.43c-.53,1.06-.29,1.42.59,2,1.37.88,2.62,2,4.17,3.12-1,1.5-2,3-3,4.52a2.7,2.7,0,0,0-.55,1.27c-.07,3.45-.08,6.89-.12,10.34,0,1.18.27,1.89,1.76,1.85,1.19,0,2.55.16,1.64,2.14-.3.65.38,1.75.09,2.42a19.32,19.32,0,0,1-2.21,3.39c-1.77,2.48-3.63,4.86-2.34,8.29.31.81-.26,2-.43,3a28.13,28.13,0,0,0-.68,4.24c-.08,5.26,0,10.52,0,15.79,0,3.52.26,7.06,0,10.56-.4,4.81.68,9.61-.4,14.46-.55,2.51.37,5.31.35,8,0,1.79-.74,3.59-.73,5.38a23.5,23.5,0,0,0,1,4.62l1.7-.55c.23.85.93,2,.61,2.49-1.47,2.14-.21,3.43,1.07,4.87a17.7,17.7,0,0,1,1.4,2.09l.87-.5c.13-2.91.24-5.83.39-8.74a12.51,12.51,0,0,0-1.44-5.86,29.3,29.3,0,0,1-2.81-9.54c-.28-3.21-1-6.42-.92-9.68a67,67,0,0,1,.47-8.28,81.06,81.06,0,0,1,2.23-9.7c.46-1.65,1.59-3.1,2.07-4.75a39.1,39.1,0,0,1,8.16-15.33c4.59-5.17,8.85-10.63,13.59-15.65a35.23,35.23,0,0,1,12.4-7.95c4.95-2.05,9.85-4.25,14.73-6.47,2.72-1.24,5.63-2.28,8-4.05,3.82-2.85,6.61-6.74,9-10.88a42.2,42.2,0,0,0,2.4-4,65.1,65.1,0,0,0,3.82-9.7c1-4,1.29-8.29,2.18-12.38a15.32,15.32,0,0,1,2.41-5.41,3,3,0,0,0,0-3.61,2.73,2.73,0,0,1-.06-3.36c1-1.46-.65-2.19-1.63-2.67a5.09,5.09,0,0,1-2.79-3.54,6.2,6.2,0,0,1,1.2-5.78,12.05,12.05,0,0,1,3.1-3c1.49-.88,2-2.26,2.53-3.66a2.89,2.89,0,0,0-.25-1.77c-1.28-3.73-4.62-6.67-4.26-11.05a1.39,1.39,0,0,0-.58-1c-1.35-.86-1.89-1.62,0-2.44.26-.11.41-.44.63-.65l4.1-3.92a1.16,1.16,0,0,0-.34-.43c-1.4-1-1.4-2.13-.2-3.31.8-.78,1-1.43.14-2.45a3,3,0,0,1-.28-2.42c.65-2.36,1.3-4.66.28-7.09a2.74,2.74,0,0,1-.08-1.93,9.53,9.53,0,0,1,1.51-2c.5.53,1.2,1,1.47,1.61a5.4,5.4,0,0,1,.23,4.38c-.5,1.26-.21,2.85-.22,4.29a31.83,31.83,0,0,0,.06,3.91,2.76,2.76,0,0,0,.9,1.59c.9.83,1.29,1.53.24,2.56s-.73,1.64.54,2.16a6.61,6.61,0,0,1,2.76,1.88,11.34,11.34,0,0,1,1.44,3.06,23.78,23.78,0,0,1,.35,6.92,18.66,18.66,0,0,1-2.42,5.76c-1.35,2.5-1.13,3.89.84,5.8,4.75,4.58,4,7.78.36,12.64a6.39,6.39,0,0,0-1.7,4.76c.14,2.23,1,3.55,2,5.3,1.16,2,1.17,4.6,1.6,7a27.1,27.1,0,0,0,.39,3.42c.79,2.43,1.8,4.78,2.68,7.18.35,1,.53,2,.87,2.91a7.75,7.75,0,0,0,1.06,2.27,20.36,20.36,0,0,1,3.94,7.77c.51,1.89,1.8,3.57,2.76,5.34a9.52,9.52,0,0,1,.75,1.24c.79,2.39,2.94,3.26,4.81,4.48,1,.64,1.68,1.8,2.71,2.33,2.94,1.55,6,2.84,9,4.33,3.31,1.67,6.52,3.57,9.88,5.15,3,1.4,6.21,2.25,9.08,3.82,2.32,1.27,4.26,3.24,6.37,4.9.65.52,1.31,1,2,1.59a68.61,68.61,0,0,1,5.82,5.05,29.78,29.78,0,0,1,7.63,14.28c.82,3.69,2.16,7.27,3.18,10.93.52,1.84.78,3.76,1.28,5.61.42,1.53,1.14,3,1.51,4.52a33.13,33.13,0,0,1,.76,5c.12,1.3-.06,2.62,0,3.92.28,4.72-1.36,9-2.93,13.29-.69,1.91-1.13,3.91-1.7,5.87a4.59,4.59,0,0,1-.59,1.48c-1.53,2-2.84,4-2.37,6.8a34.21,34.21,0,0,1,0,5.24l3.59-3.85a12.08,12.08,0,0,1,1.31-1.27c.31-.23.92-.51,1.07-.38a1.7,1.7,0,0,1,.56,1.19c0,3.27-.18,6.55-.28,9.82,0,.27,0,.55,0,1a24.08,24.08,0,0,0,2.07-2.36,3.2,3.2,0,0,0,.4-1.69c0-2.34,0-4.67,0-7,.07-2.94.25-5.88.32-8.82.1-4.41.14-8.82.21-13.22,0-1.83,0-3.66.09-5.48s.52-3.76.65-5.65c.07-1.13-.22-2.28-.21-3.43,0-4,.14-8,.13-11.95,0-2.1-.28-4.2-.34-6.3-.06-2.33.13-4.67,0-7a38.49,38.49,0,0,0-1.12-7.26c-.85-3.11-2.08-6.11-3.19-9.15-.2-.56-.65-1-.84-1.6-.28-.79-.81-1.81-.53-2.42.46-1,1.3-2,2.86-1.6,1.28.35,1.81-.09,1.7-1.61-.24-3.35-.3-6.72-.28-10.09,0-.4,1.12-1.24,1.38-1.12a3.2,3.2,0,0,1,1.72,1.65c.23.87-.23,1.91-.21,2.87,0,2.42.19,4.84.31,7.26,0,1.07.4,1.63,1.7,1.49,2.71-.27,5.43-.42,8.15-.47,1.62,0,2.08-.69,2-2.23-.14-3.11-.22-6.23-.16-9.34,0-2.45-.08-2.68-2.62-2.84-1.59-.1-3.17-.29-4.76-.32a7.26,7.26,0,0,0-2.84.34c-2.72,1.16-4.12.74-6-1.54a34.36,34.36,0,0,0-3.57-3.22c-.63-.59-1.15-1.3-1.86-2.12,2.29-.5,4.12-.86,5.93-1.32s2.39-1.4,2-3.19c-.7-3.16-.43-4.1,2.36-5.63a4.23,4.23,0,0,0,2.5-4.52,2.27,2.27,0,0,0-1.87-2.42,43,43,0,0,1-4.44-1.89c1.16-1.78,2.75-1.39,4.06-1.42,2.35-.05,2.93-.59,2.61-2.94a14.91,14.91,0,0,1-.35-1.58c0-1,.26-1.6,1.55-1.1,1.47.58,2.16,1.22,2.11,3,0,1.3,1.09,2.66,1.79,3.94a5.23,5.23,0,0,0,1.12,1.08c-2.1,3-2.1,3-1.61,5.8,2.64.22,4.19,2,5.64,4,1.27,1.71.85,3.43.07,5.11s-.54,2.43,1.27,3.18c1.5.62,3.27,1.25,3.68,3.39.35,1.83-.07,3-2,3.38-1.58.3-2,1.1-1.92,2.53.18,3.08.19,6.18.5,9.25a5.28,5.28,0,0,0,1.44,2.95,1.86,1.86,0,0,1,.58,2.35c-1.3,3.12-2.61,6.23-3.84,9.38-.73,1.88-1.08,3.93-2,5.69-2.64,5-1,10.16-1,15.25,0,3.07,0,6.14.06,9.21,0,5.7,0,11.4,0,17.1a28,28,0,0,1-.62,3.92c-.1.64-.16,1.28-.24,1.93-.19,1.46-.43,2.93-.52,4.4-.05.83.26,1.67.24,2.51,0,1.93-.32,3.86-.26,5.78.09,2.52.48,5,.62,7.57s-.23,5,.29,7.38c.35,1.63,1.83,3,2.88,4.46a2.2,2.2,0,0,0,1.2-.59c1.34-1.7,2.58-3.49,3.89-5.21,1.16-1.53,1.78-1.56,2.78.08,1.58,2.56,2.74,5.42,4.57,7.78s1.82,4.36,1.25,6.93c-.93,4.23-.21,8.51-.16,12.78.06,5.68-.35,11.36-.52,17a4.91,4.91,0,0,0,.33,1.77c.54,1.45.72,2.77-.6,4-.31.29-.29,1-.29,1.54,0,1.79,0,3.57.1,5.35.07,3.18,1.3,4.22,4.49,3.87,2.72-.3,5.46-.55,8.54-.86-1.64-2-3.28-4.07-4.9-6.1s-1.83-4.71-2.67-7.09c-1-2.73-.6-5.66-2-8.34-.68-1.3-.33-3.33,0-4.93,1.45-7.05,5.6-12.54,10.69-17.32,3.91-3.68,8.11-7,12.2-10.52a5.8,5.8,0,0,1,1.36-.89c5.32-2.38,8.34-6.74,10.58-11.89,1-2.32,1.8-4.85,4-6.49.22-.16.29-.63.3-1,0-2.94-.39-6,.18-8.8.4-2,1.17-3.8,1-5.91a3.62,3.62,0,0,0-2.31-3.35A22.35,22.35,0,0,1,773.4,372a.87.87,0,0,1-.36-.73,1,1,0,0,1,.65-.53,23.56,23.56,0,0,1,2.51-.31c2.33-.15,3.32-2.16,2.07-4.2a16.71,16.71,0,0,1-2.08-3.55c-.27-.87.24-2,.43-3,.09-.51.3-1,.34-1.51a5,5,0,0,1,3.21-4.23c.91-.3,3.09.82,3.35,1.83,1,3.93,2,7.87,1,12a10.64,10.64,0,0,0,0,2.27c1.25-.19,2.41-.44,3.58-.52a4,4,0,0,1,1.92.33c1.18.55,1.23,1.72.06,2.3-1.4.68-2.9,1.13-4.51,1.74a8.26,8.26,0,0,0,.31.79A8.24,8.24,0,0,1,787,377c.54,5,1.07,10,1.39,15a17.26,17.26,0,0,0,3.1,9.65,26,26,0,0,0,4.26,3.9c1.88,1.56,3.9,3,5.74,4.55a32.81,32.81,0,0,0,9.39,5.18c4.66,1.89,7.87,5.31,10.48,9.45a45.84,45.84,0,0,1,3.28,5.13,37.93,37.93,0,0,1,2,6.38c.69,2.72,1.21,5.49,1.8,8.23.09.4.41.88.28,1.19a74.34,74.34,0,0,1-3.69,8.76c-1.84,3.29-5.29,4.83-8.5,6.51l-1.16.57,1.47.33c-.33.82-.66,1.62-1.2,2.94,2,0,3.91,0,5.76,0a17.36,17.36,0,0,1,2.46.43,6,6,0,0,0,1,.17,35.39,35.39,0,0,0,3.57-.06c.89-.08,1.76-.41,2.64-.56.47-.09,1.22-.26,1.41,0,1.07,1.26,2.18-.11,3.3.13,1.42.29,3-.24,4.45-.09,1.87.2,3.72.73,5.62,1.13v1.53l2-2.1c.16.36.36.78.55,1.2l.17-.63a20.16,20.16,0,0,1,3.74.21c3,.68,5.83,1.7,8.8,2.31,3.18.66,6.39.17,9.58-.32,1.19-.18,2.47.4,3.72.47,4.11.22,8.22.46,12.51-1.21-1.38-1.78-2.72-3.29-3.83-5-2.22-3.35-4.91-6.65-5.39-10.69-.58-4.81-.22-9.71,3.28-13.66,2-2.27,3.31-5,4.95-7.45a15.3,15.3,0,0,1,6-5.83c1.92-.91,3.46-2.62,5.19-3.94.81-.61,1.73-1.06,2.53-1.68a52.26,52.26,0,0,0,5.07-4.17c3.16-3.2,4.49-7.4,5.81-11.56,1.19-3.78,2.15-7.65,3.36-11.44.51-1.58,1.5-3,2.08-4.58a56.49,56.49,0,0,0,1.66-5.71c.29-1.23-.7-1.29-1.57-1.46s-1.66-.47-2.49-.72l2.44-1.13s.12,0,.18,0l2.67-.58a12.24,12.24,0,0,0-1.47-2.52,6.4,6.4,0,0,1-1.52-6.94,8.68,8.68,0,0,0,.32-2.33,3.75,3.75,0,0,1,2.34-3.18c1.42-.79,2.17.54,2.44,1.42,1.35,4.24,3.18,8.52.66,13,0,.08,0,.23.09.59a12.94,12.94,0,0,1,2,.33,8.81,8.81,0,0,1,1.55.81l-.09.55c-.82.18-1.66.32-2.47.55-.29.08-.76.34-.77.53,0,.51,0,1.28.32,1.51,2.3,1.66,2.12,4.11,2.62,6.53a41.53,41.53,0,0,0,3.69,10.2c2.63,5.14,6.68,9.27,10.76,13.31.46.46,1.42.41,1.92.86,1.77,1.62,3.44,3.35,5.14,5.05,1.51,1.5,3,3.06,4.53,4.5,1.16,1.07,2.59,1.88,3.66,3a49.44,49.44,0,0,1,4,4.92c.67.9,1.12,2,1.7,2.93.17.3.37.72.65.82,2,.68,1.65,2.42,1.83,3.93.07.59-.06,1.33.25,1.73,2.6,3.38,2.43,7.17,1.63,11a5.76,5.76,0,0,1-1.43,2.49c-1.1,1.25-1,2.21.1,2.81l-1.86,4.66c-1.8,1.92-3.48,3.82-5.28,5.61-1.17,1.17-2.15,2.72-4,2.82a7.72,7.72,0,0,1-2-.58L958,462.9c.86-2.18,1.67-4.26,2.49-6.33l-.45-.38c-.53.37-1.29.64-1.54,1.15-.57,1.2-1.46,1.53-2.47,1-.34-.19-.18-1.27-.22-1.95-.22-3.47-.37-7-.67-10.42a25.84,25.84,0,0,0-.86-3.71l-.65,0c-.35,1.31-.7,2.62-1.06,3.92a3.56,3.56,0,0,1-.39,1.23c-2.28,2.78-4.51,5.61-6.93,8.26-1.17,1.28-3.93.07-4.18-1.74a50.61,50.61,0,0,0-.75-6.43,77.31,77.31,0,0,0-2.86-8C937.31,439.23,936.91,439.06,936.55,438.75Zm-358-121.52h0c1.43-1.48,2.86-3,4.31-4.44s2.76-2.76,4.14-4.14l-.35-.32c-4,2.28-7.89,5-12.55,6a6.6,6.6,0,0,0-2.71,1.25c-2,1.73-4,3.55-5.84,5.48q-6.12,6.36-12.1,12.89c-1.37,1.5-2.51,3.21-3.77,4.8-.48.6-1.25,1.06-1.51,1.74-1.38,3.49-2.62,7.05-3.94,10.57-.47,1.23-1.63,2.49.39,3.44.18.09.19.55.24.85.3,1.54.52,3.09.88,4.61.47,1.94,1.2,3.83,1.56,5.79.8,4.32-.95,8.25-2,12.57-3.12-1.78-4.36-4.59-5.37-7.57a30,30,0,0,0-.13,4.61,74.89,74.89,0,0,0,.84,10,14.71,14.71,0,0,0,2.64,5.71c2.1,2.91,3.54,6.31,5.26,9.51.2.37.46.73.69,1.09l.54-.05c.79-3.59,1.58-7.17,2.42-11a5,5,0,0,1,2.37,4.08,44.87,44.87,0,0,0,1,4.87c.12.44.64.76,1,1.13.31-.33.78-.6.92-1,1.25-3.57,2.45-7.17,3.73-11a10.22,10.22,0,0,1,1.15,2.09c.47,1.49.48,3.18,1.18,4.52,1,1.83,1,4.33,3.5,5.33a5.55,5.55,0,0,0,1-1.2c1.63-3.7,3.21-7.42,4.82-11.13.22-.5.51-1,.77-1.45a7.28,7.28,0,0,1,1,1.34c1.39,3.05,2.72,6.12,4.17,9.41a10.46,10.46,0,0,0,1.42-1.91c1-2.52,1.9-5.09,2.9-7.61a5.38,5.38,0,0,1,1.09-1.27c.35.42.89.78,1,1.26.54,1.73,1,3.5,1.43,5.25.4,1.43.82,2.86,1.29,4.52,2.23-3.81,5-7.13,4.61-11.83l.93.05a52.38,52.38,0,0,0,2.14,6.85,57.49,57.49,0,0,0,3.89,6.33l.69-.15L606,385.75l.63.12c.46,2.32.56,4.79,1.49,6.91s2.67,3.83,4.44,6.25c2.08-4.53,4-8.66,6-13.06.33.71,1.16,1.65,1.05,2.46-.46,3.26,2,5,3.46,7.25.67,1,1.48.78,1.9-.25,1.11-2.73,2.12-5.5,3.19-8.24.38-1,.83-1.91,1.24-2.86l.68-.16c2.89,3.56,4.14,8.18,7,12l8.49-11.76h.61a32.36,32.36,0,0,1,.49,4.25c0,2.79,1.19,5.18,2.24,8.27l9.71-11.9a5.1,5.1,0,0,1,.61,4.37,24,24,0,0,0-.42,5.56c0,1.09,1,2.13,1.95,1.36,2-1.58,4.46-2.77,5.32-5.51a11.8,11.8,0,0,1,1.28-2.25l.57.06c.32,1.07,1,2.2.89,3.18-.44,2.63.69,4.84,1.36,7.19.38,1.35,1.06,1.36,2.11.55a13.67,13.67,0,0,0,5-7.42,12.67,12.67,0,0,1,.72-1.71l.69,0,.33,4.15a7.91,7.91,0,0,0,.26,2.61c1,2.25,2.29,4.39,3.66,7l7.17-8.61.54.07q.48,2.55,1,5.1a36.3,36.3,0,0,0,2.64-4.14q2.84-6.12,5.39-12.36a9.12,9.12,0,0,0,.8-4c-.13-1.91-.86-3.77-1.15-5.69-.62-4-1.82-8-.19-12.14,1.39-3.51.49-7-.44-10.45-1.12-4.18-2.16-8.38-3.53-12.48-1.13-3.42-2.5-6.79-5.07-9.48s-5.33-5.76-8.14-8.49a22.53,22.53,0,0,0-5.36-4.16,48.46,48.46,0,0,0-11.54-3.84c-2.2-.49-4.17-2-6.26-3-.91-.44-1.85-.85-2.77-1.27-3.15-1.43-6.29-2.87-9.44-4.28a17.44,17.44,0,0,0-1.77-.58,13.75,13.75,0,0,0,0,1.7c.12.83.4,1.64.51,2.48s0,1.42,0,2.54l-9.11-4.9c-.48,1.88-.95,3.63-1.38,5.38-.29,1.18-.93,1.78-2,1-1.61-1.19-3.17-2.48-4.66-3.83a19.4,19.4,0,0,1-2-2.56c-1.05,2.12-1.89,4-2.93,5.8-.47.8-1.39,1.95-2,1.9a3.65,3.65,0,0,1-2.69-1.69,51.53,51.53,0,0,1-1.87-6.68c-.18-.72-.34-1.44-.59-2.52l-9.64,11.34c-2.08-3.89-.84-7.8-1.47-11.58a7.14,7.14,0,0,0-1.11.59c-2,1.64-3.67,3.33-6.93,2.3-2.6-.81-5.34.86-7.68,2.41-2.66,1.78-5.32,3.47-7,6.44C581.58,315.74,579.8,316.34,578.51,317.23Zm204.54,65c0,2.28,0,4.43,0,6.57a6.14,6.14,0,0,1-1.89,4.16c-.6.67-.54,1.94-.82,2.92a24,24,0,0,1-1.19,3.65c-1,2.08-2.16,4.07-3.25,6.1-1.36,2.53-2.55,5.34-5.7,6-3.79.83-6,3.91-8.92,6-2.71,1.9-4.88,4.59-7.29,6.94-1.46,1.43-3.31,2.63-4.28,4.33-1.84,3.24-4.85,5.88-5.35,9.86-.06.44-.49.82-.67,1.26a2.82,2.82,0,0,0-.31,1.21c.2,2.17.88,4.36-.51,6.42-.19.28-.11.75-.16,1.13A3.36,3.36,0,0,0,743.9,447c.6-2.21,1-4.5,1.75-6.63.85-2.31.72-5.14,3.11-6.67,1.81.4,2,1.6,1.88,3.17-.66,6.08,1.69,11.29,5.08,16.36,1-7.29,3.75-14,6.34-20.76a3.48,3.48,0,0,1,2.6,2.6c1.3,4,2.85,7.92,4.4,11.83a9,9,0,0,0,1.6,2,14.45,14.45,0,0,0,1.54-2.05,12.67,12.67,0,0,0,.76-2.4q2-7,4-14c.29-1,1-1.17,1.6-.51a21.09,21.09,0,0,1,2.58,3.3c1.14,1.81,2.52,3.61,3.12,5.62,1,3.27,1.39,6.71,2.14,10.6a11.56,11.56,0,0,0,1.87-1.52c.93-1.34,1.79-2.72,2.61-4.13,1.39-2.37,2.71-4.79,4.12-7.16a18.71,18.71,0,0,1,1.54-1.94,13.27,13.27,0,0,1,1.84,2.3,16.6,16.6,0,0,1,.78,2.95c.6,2.17,1.36,4.31,1.8,6.52.41,2,.5,4.12.77,6.57,6.07-4.1,8.73-10.49,12.92-16.33,4,5.24,3.4,10.84,2.8,16.43,2.89-.38,5.55-3.38,5.95-6.38.52-3.93-.55-7.67-1.25-11.46-.22-1.17-.71-2.28-1-3.44-.87-3.71-3.53-6.33-5.59-9.32s-5-4.35-8-6c-4-2.19-7.88-4.58-11.75-7a13.52,13.52,0,0,1-2.75-2.44c-1.69-1.83-3.24-3.81-5-5.62-2.09-2.23-2.57-5-2.75-7.84-.2-3.36-.21-6.73-.34-10.1C785,382.44,784.4,381.81,783.05,382.28ZM317.64,378.6c0,1.65,0,3.19,0,4.73,0,2.27-.36,4.37-2.12,6.13-.62.61-.49,1.94-.79,2.92a22.09,22.09,0,0,1-1.25,3.62c-1,1.91-2.25,3.65-3.09,5.6-1.29,3-2.84,5.57-6.19,6.7-2,.67-4.19,1.18-5.23,3.42-.14.31-.66.45-1,.67a16.07,16.07,0,0,0-2.4,1.63c-2.78,2.65-5.49,5.38-8.24,8.07-1.1,1.09-2.56,2-3.27,3.28-1.82,3.27-4.8,5.93-5.34,9.89-.05.34-.34.64-.43,1a10.05,10.05,0,0,0-.41,1.85,8.06,8.06,0,0,0,.06,1.9c.08.61.28,1.2.5,2.15,1.47-4.45,1.8-8.75,4.42-12.15,2.1.41,2.41,1.65,2.2,3.3-.64,5,1.64,12.49,5.32,16.69.74-7.73,3.46-14.42,6-21.07,2.33.25,2.47,1.93,2.85,3.44a17.85,17.85,0,0,0,.61,2.2c1.09,2.75,2.17,5.51,3.38,8.21a15.17,15.17,0,0,0,1.83,2.53,9.39,9.39,0,0,0,1.55-2.26q2.42-7.93,4.61-15.92c.36-1.28,1-1.59,1.86-.71s1.61,2.12,2.48,3.13c2.4,2.78,3.17,6.2,3.94,9.64.45,2.05.91,4.11,1.37,6.16l.66.18c.72-.9,1.5-1.76,2.16-2.71s1-1.77,1.55-2.66c1.35-2.39,2.68-4.8,4.08-7.16a15.23,15.23,0,0,1,1.59-1.93,12.47,12.47,0,0,1,1.86,2.28,16.55,16.55,0,0,1,.75,2.95c.61,2.17,1.39,4.3,1.84,6.5.41,2,.48,4.12.72,6.45,3.29-1.8,5.23-4.55,7.13-7.31s3.68-5.67,5.51-8.51l.77.12c3.38,4.84,3.05,10.36,2.31,15.93,2.35-.14,5.8-3.38,6-6.54.28-3.89-.68-7.55-1.35-11.28a22.3,22.3,0,0,0-5.06-10.73c-2.05-2.4-3.57-5.32-6.9-6.46a35.53,35.53,0,0,1-5.44-2.74c-2.27-1.25-4.6-2.43-6.72-3.89a35.81,35.81,0,0,1-5-4.32c-1.75-1.78-3.25-3.8-4.95-5.63-2.13-2.28-2.59-5.09-2.72-8-.16-3.31-.19-6.62-.35-9.93C319.33,378.76,318.72,378.14,317.64,378.6Zm603.16,7.08-.58,0c-.06.4-.31.92-.15,1.17,1.39,2.1-.13,4.09-.41,6-.37,2.59-1.79,5-2.76,7.53-.22.56-.5,1.09-.72,1.64-1.06,2.76-1.79,5.71-3.26,8.22a43.79,43.79,0,0,1-6.35,7.92c-3,3.07-6.5,5.21-10,7.38a31,31,0,0,0-5.14,4.29,20.21,20.21,0,0,0-3.84,5c-.81,1.52-2.47,2.75-1.59,5.09a41.86,41.86,0,0,0,7.47,13c.66.76,1.12,1.71,1.71,2.54a5.27,5.27,0,0,0,.84.79c.26-.29.66-.55.77-.9a24.85,24.85,0,0,0,1-3.86c.35-2.52.39-5.09.83-7.58.49-2.77,1.24-5.48,1.93-8.2.39-1.53,1.13-1.71,2.29-.58a3.61,3.61,0,0,1,.76,1.19c1.64,3.84,3.22,7.71,4.89,11.55.76,1.74,1.69,3.4,2.77,5.57,4-5.6,6.33-11.42,8.39-17.94,1.37,1.24,2.74,2,3.49,3.23A21.62,21.62,0,0,1,926,449c.08,1.25.33,2.48.56,4.17.81-.61,1.49-.88,1.75-1.37a69.39,69.39,0,0,0,3.55-7.44c.82-2.2,1.13-4.58,1.75-6.85a32.16,32.16,0,0,1,1.18-3.09l.68-.2c1.4,2,2.86,3.94,4.17,6a12,12,0,0,1,1.67,3.57c.66,2.71,1.06,5.49,1.61,8.22.11.55.41,1.44.71,1.48a2.27,2.27,0,0,0,1.75-.62c3.27-3.5,5.89-7.33,6.24-12.35a16.78,16.78,0,0,1,1.14-3.79c1.92.35,2.39,1.49,2.64,2.91.63,3.52,1.36,7,2,10.52.24,1.25.43,2.5.7,4.12a9.8,9.8,0,0,0,3.6-6.55A17.1,17.1,0,0,0,960,436.76c-1.35-2.52-3.19-4.77-4.61-7.26-1.18-2.06-3-3.36-4.7-4.87a81.66,81.66,0,0,1-7.71-8,20.25,20.25,0,0,0-5.73-4.58,14.7,14.7,0,0,1-3.54-2.31,42.1,42.1,0,0,1-5.45-6.2c-2.15-3.22-3.91-6.7-5.8-10.08-.16-.3-.06-.73-.14-1.08Q921.57,389,920.8,385.68ZM444.08,448.29h.67c3.74-5.14,6.07-11,8.21-17.59,1.49,1.44,3.05,2.34,3.66,3.68a43.84,43.84,0,0,1,2.5,7.91,45.47,45.47,0,0,1,.68,5.61l.67.09c2.6-2.29,3.56-5.58,4.68-8.68s1.84-6.57,2.74-9.87l.84-.17a48.2,48.2,0,0,1,3,3.85,26.75,26.75,0,0,1,3.11,5.69,71.17,71.17,0,0,1,1.63,7.89,10.38,10.38,0,0,0,.71,1.7c.6-.26,1.36-.36,1.76-.79,3.2-3.47,5.86-7.21,6.24-12.18a19.23,19.23,0,0,1,1.24-4.05l1-.09c3.54,5.12,3.47,11.34,4.4,17.64a9.52,9.52,0,0,0,3.64-6.4A17.73,17.73,0,0,0,494,432.06a26.86,26.86,0,0,0-5-7.7c-1-1.06-1.56-2.76-2.72-3.34-3.24-1.61-5-4.69-7.52-6.93s-4.25-5.39-7.65-6.52a10.14,10.14,0,0,1-4.7-3.45c-1.38-1.66-2.89-3.23-4.42-4.75-3-3-4.12-7-6.11-10.55-.16-.29-.05-.72-.13-1.08-.48-2.13-1-4.25-1.49-6.38l-.51,0c-.06.42-.31,1-.13,1.23,1.52,2-.14,3.88-.39,5.64-.39,2.82-2,5.48-3.1,8.2-.18.44-.36.89-.53,1.34-1.05,2.7-1.73,5.63-3.24,8-1.79,2.86-4.35,5.21-6.47,7.87-2.77,3.47-6.62,5.5-10.29,7.7a26.27,26.27,0,0,0-5,4.27,24,24,0,0,0-3.79,4.89c-.87,1.51-2.43,2.69-1.67,5.09,2,6.23,6.13,11,10,16.35a7.47,7.47,0,0,0,.86-1.64c.43-1.89.8-3.79,1.14-5.69.49-2.78.89-5.58,1.42-8.35a37.47,37.47,0,0,1,1.07-4c.26-.8.66-1.56,1-2.34.7.58,1.69,1,2.06,1.77,1.27,2.61,2.3,5.34,3.48,8C441.44,442.61,442.77,445.44,444.08,448.29ZM634.66,519c-.11-2.49-1.31-4.71-3.4-7.25-2.81-3.4-6.27-6-9.71-8.7-1.19-.93-1.85-.84-2.63.32-2.75,4.13-6.24,7.72-8.4,12.33s-1.82,8.77,2.08,12.37c2,1.81,2,1.81.2,3.82a5.9,5.9,0,0,1-1,.77c-1.46,1.08-3.26,1.74-3.37,4.12,0,1.14-1.42,2.2-1.54,3.36-.37,3.64-.91,7.36-.48,10.94A45.62,45.62,0,0,1,607,561.4a21.2,21.2,0,0,0,0,5.22c.43,3.19.7,6.32-.3,9.46a6.14,6.14,0,0,0,.11,2.16c.14,1.71.26,3.42.45,5.13a33.59,33.59,0,0,0,.62,4,1.46,1.46,0,0,0,1,.84c5,1.08,9.89-.77,14.86-.16,3.1.38,6.18-.95,9.33-.06,1.86.53,2.72-.25,2.68-2.15s-.26-4-.33-6c-.15-5-.44-10.06-.36-15.09.11-6.58.89-13.17.69-19.74-.16-5.4-1.3-10.75-6.46-14.11-1.74-1.14-1.55-3.11.17-4.22a10.84,10.84,0,0,0,1.8-1.24C633,523.64,634.71,521.74,634.66,519Zm-73.34,62.7c-.17,4,.37,4.56,2.65,4.44,2.72-.14,5.46,0,8.19,0,1.66,0,3.44-.27,5,.2,3.41,1,6.82.83,10.25.6.46,0,1.17-.24,1.3-.56.45-1,1.12-2.26.92-3.25-.76-3.85.48-7.71-.49-11.59-.58-2.3,0-4.89,0-7.34,0-4-.07-8,0-12.06,0-.7.47-1.41.44-2.1-.09-2.51-.41-5-.44-7.53,0-2.24-1.37-3.92-2-5.87a6.86,6.86,0,0,0-3.78-4.08,2,2,0,0,1-.32-.17c-2.24-1.58-2.42-2.5-.36-4.18a8.83,8.83,0,0,0,3.07-8.75c-.55-2.78-2.57-5.35-4.25-7.8s-3.82-4.69-5.71-7.05c-.59-.74-1.12-1.37-2.06-.55-4,3.52-7.95,7.07-10.8,11.71-3,4.89-1.57,9.66,3.52,12.52,1.81,1,2.06,2.66.63,4.21-.24.27-.56.47-.82.72-3,2.92-6,5.84-5.93,10.53.07,3.69-.37,7.45.2,11.06C561.93,564.09,561.39,573.4,561.32,581.65Zm120-61.9a24.77,24.77,0,0,0-1.51-3.86c-2.76-4.83-7-8.3-11.24-11.73-.33-.26-1.53,0-1.89.46-1.38,1.6-2.47,3.44-3.86,5a28,28,0,0,0-5.44,9.47,4.37,4.37,0,0,0-.23,2.28c.7,3,1.31,6,4.24,7.87.32.2.38,1.31.14,1.77a5.16,5.16,0,0,1-1.71,1.8c-1.54,1-3,1.85-3.3,4-.15,1.24-1.45,2.34-1.57,3.57-.36,3.46-.86,7-.41,10.4a46.45,46.45,0,0,1,.56,10.39,22.75,22.75,0,0,0,0,4.88c.4,3.13.7,6.21-.26,9.31a5.88,5.88,0,0,0,.08,2.16c.13,1.65.25,3.31.42,5a34.63,34.63,0,0,0,.56,3.83c.08.36.68.92.95.88,2.91-.49,5.88.7,8.8-.54,1.19-.52,2.71-.3,4.08-.37,1.79-.09,3.68.17,5.35-.31a10.57,10.57,0,0,1,4.77-.26c1.32.2,2.49-.28,2.32-2.1s-.26-3.87-.3-5.8c-.11-5.09-.28-10.19-.23-15.28.06-6.47.65-13,.37-19.41-.17-3.94-1.31-7.95-4.57-10.78s-3.14-3.3.24-5.84A8.73,8.73,0,0,0,681.29,519.75Zm-72.58-51.69h27.63c-.4-.49-.5-.63-.62-.76-1.73-1.92-1.41-3.72.33-5.52s3.53-3.73,4.25-6a27.27,27.27,0,0,0,.81-8.59c-.07-5.44-.45-10.87-.64-16.32-.11-3.14-.28-3.27-3.38-4a4.23,4.23,0,0,1-2.14-2c-.16-.26.66-1.15,1.07-1.73.27-.38.75-.66.89-1.07,1-2.85,1.88-5.74,6.07-5.48-.52-2-.65-3.83-1.52-5.24-.63-1-2.27-1.35-3.45-2a11.73,11.73,0,0,0-.79,2.75c-.12,2.49,0,5,0,8.11-1.07-.85-2.32-1.34-2.47-2a54.44,54.44,0,0,1-.5-6.15c-.07-.92-.27-1.83-.42-2.75l-.57-.12a4.77,4.77,0,0,0-.75,1.54c-.17,2.29-.14,4.59-.34,6.87-.16,1.71.81,2.25,2.16,2.52a14.54,14.54,0,0,0,1.59.12c.56,1.9.43,2.1-1.41,2-5.47-.17-11-.45-16.42-.53-4.15,0-8.31.13-12.47.24-.3,0-.84.22-.85.36a1.62,1.62,0,0,0,.34,1.09,20.24,20.24,0,0,1,1.85,1.71c.54.75,1.31,1.81,1.11,2.47s-1.51,1.11-2.37,1.19c-1,.1-1.45.48-1.49,1.39-.11,2.21-.22,4.41-.24,6.62,0,2.84-.07,5.69.09,8.52.22,3.77.77,7.52.92,11.3a4,4,0,0,0,2.13,3.85,24.85,24.85,0,0,0,2.32,1.38c1.05.43,1.47,1.12,1.1,2.12C610,465.29,609.4,466.5,608.71,468.06Zm-83.6,103-.43,0c0,2.92.05,5.83,0,8.74,0,1.55.94,1.8,2.06,1.89,2.3.18,4.61.27,6.92.42,1.48.1,3.1-.09,4.42.45,2.93,1.2,5.93,1,8.94,1.08a1.36,1.36,0,0,0,1.07-.64,8.31,8.31,0,0,0,.73-3c-.08-3.62-.39-7.24-.5-10.86-.09-2.57,0-5.15,0-7.73,0-1.87-.29-3.74-.22-5.6.18-4.91.73-9.81.18-14.73a7.51,7.51,0,0,0-.72-3.14c-1.37-2.16-1.85-4.84-4.72-6.13-2-.91-1.92-2-.15-3.57,2.53-2.28,3-5.32,2.72-8.26a15,15,0,0,0-2.76-6.24,81.34,81.34,0,0,0-6-7.51,1.61,1.61,0,0,0-1.55-.22,46.84,46.84,0,0,0-9.14,11.25c-2.23,4.12-1.55,8.83,3.25,11.45.93.51,1.26,1.13.88,2.06a9.69,9.69,0,0,1-1.16,2.18c-1.28,1.68-2.91,3.15-3.9,5-1.64,3-1.27,6.52-1.13,9.84C524.18,555.54,524.68,563.28,525.11,571Zm34.41-100.25c8.43-2.25,17-2.35,25.63-2.68a2.5,2.5,0,0,0-.79-.75c-1.06-.79-1.59-2.84-.89-3.67,1.49-1.75,2.75-3.87,4.6-5.08,2.65-1.74,2.44-4.07,2.42-6.55,0-.24,0-.49-.06-.73-.12-3.33-.27-6.66-.36-10-.1-3.72-.16-7.44-.24-11.16a1.37,1.37,0,0,0-1.6-1.53,8.8,8.8,0,0,1-1.44-.15,3.7,3.7,0,0,1-3.18-2.81c-.11-.4,1.22-1.36,2-1.76,1.16-.57,1.44-1.07.67-2.22a6.53,6.53,0,0,1-1-2.64c-.26-1.9-.33-3.83-.53-6.37-.87.72-1.81,1.12-1.89,1.64a19.52,19.52,0,0,0-.29,5.74c.1.66,1.77,1.09,2.75,1.64-.25,1.85-1.5,1.83-2.92,1.8s-3.16-.65-4.32,1c-.14.2-.77.16-1.13.07-3-.75-3-.76-4.6,1.67-1-.56-2.09-1.68-3-1.55s-1.86,1.41-2.83,2.23c-.78-.35-2-1.37-2.77-1.11s-1,1.82-1.71,3.13c-.79-.64-1.56-1.34-2.41-1.93a5.19,5.19,0,0,0-1.39-.48,4.18,4.18,0,0,0-.18,1.29,8.06,8.06,0,0,0,.69,2.6c1,1.78.58,2.74-1.32,3.38a1.91,1.91,0,0,0-1,1.44c0,3,.11,6.05.19,9.07.17,6.3.45,12.61.4,18.91,0,1.41.28,2.41,1.27,3C560.1,467.36,560.05,468.74,559.52,470.77ZM655.88,425l1.12,3.2c-3.43,1.13-4,1.36-3.8,4.78.25,4,.25,8,.29,11.94,0,1.74-.21,3.47-.2,5.21s.11,3.35.25,5c.09,1.12,0,2.48.54,3.31a35.89,35.89,0,0,0,4.86,5.58c1.1,1,1.24,1.74.22,2.65s-2.25,1.76-3.38,2.64l.44,1c2.29.35,4.57.86,6.87,1,3.15.21,6.37-.7,9.45.65.19.08.47-.06.7-.05,1.85,0,3.7,0,5.53.16a33.28,33.28,0,0,1,4,.82c-.53-.71-1.22-1.61-1.9-2.53s-1.14-2-.13-3.09c1.37-1.43,2.78-2.83,4.14-4.28a2.64,2.64,0,0,0,.84-1.3c.18-2.11.24-4.23.32-6.36.11-3.2.23-6.41.28-9.63,0-2.27-.16-4.54-.08-6.81.1-2.74.33-5.24-2.24-7.39a13.8,13.8,0,0,0-5.48-2.84c-2.63-.67-5.47-.39-8.17-.83-4.21-.7-8.37-1.66-12.55-2.51C657.27,425.17,656.69,425.09,655.88,425Zm-98,94.44c1.23-2.25,1.06-5.21,4-6.34.22-.08.31-.5.46-.76,1.37-2.33,2.41-4.68,5-6.38s4.25-4.67,6.39-7a1.61,1.61,0,0,1,1.5-.17c2.34,2.69,4.63,5.42,6.84,8.21a64.85,64.85,0,0,1,5.16,6.93c2.1,3.55,3.56,7.38,1.58,11.5a20.82,20.82,0,0,1-2.71,3.81c-.59.75-.9,1.29-.09,2.16a23.27,23.27,0,0,1,2.68,3.55,35.67,35.67,0,0,1,1.73,3.44,55.13,55.13,0,0,0,.42-7.85q.15-16.85.32-33.69c0-3.7.09-7.4,0-11.1-.11-4.35-.33-8.71-.59-13.06a1.68,1.68,0,0,0-1-1.19,9.59,9.59,0,0,0-3-.4c-3.25.13-6.5.42-9.75.54-1,0-2-.51-3-.37-4.64.69-9.26,1.51-13.88,2.32-2.84.49-3.33,1.32-2.63,4.13a10.42,10.42,0,0,1,.34,2.35c.12,6.3.24,12.61.28,18.91C557.88,505.76,557.85,512.58,557.85,519.4Zm238.8-79.66c-1.9,3.15-3.39,5.7-4.95,8.21-1.31,2.09-2.65,4.16-4.08,6.15a2.25,2.25,0,0,1-1.74.94,2.46,2.46,0,0,1-1.51-1.45,9.84,9.84,0,0,1-.49-3.37,27.35,27.35,0,0,0-3-14c-.3-.56-1-.91-1.51-1.36-.49.59-1.24,1.12-1.41,1.79-.8,3-1.18,6.06-2.17,8.95a81.26,81.26,0,0,1-4.09,9.16,2,2,0,0,1-1.72.72,2.36,2.36,0,0,1-1.51-1.33c-.9-3.05-1.53-6.18-2.49-9.21a56.73,56.73,0,0,0-2.51-5.66l-.61.16a8.79,8.79,0,0,0-.76,1.37c-1.8,5-3.53,9.93-3.28,15.33.06,1.29-.54,2.34-1.74,2.3a3.57,3.57,0,0,1-2.56-1.49c-1.42-2.45-2.56-5-3.77-7.62-.89-1.91-1.71-3.86-2.56-5.79l-.47,0c-.55,2.46-1,4.95-1.69,7.35-1,3.3.5,6,1.81,8.74,1.17,2.45,4.23,3.34,5.27,6,.11.29,1.54.12,2.35.07,1.26-.06,2.52-.28,3.78-.3,2.91,0,5.83-.06,8.74.08,1.69.08,3.5-.1,4.94,1.19a1.63,1.63,0,0,0,1,.25c3.28.08,6.57.11,9.86.23,2.6.09,5.2.46,7.8.39,2.36-.06,4.7-.58,7.06-.82,3.37-.35,6.72-.61,9.89-2.07,1.31-.6,2-1.14,1.61-2.07,2.27-1.87,4.34-3.57,6.57-5.42-3.3-1.25-3.41-1.42-2.39-4.29a16.29,16.29,0,0,0,1-8.51,13.42,13.42,0,0,0-.73-2c-1.47,2.1-2.61,4-4,5.66-2.42,2.94-4.77,6-8.15,7.94a3.37,3.37,0,0,1-2.29.09,1.71,1.71,0,0,1-1.07-1.21c-.25-2.93-.18-5.9-.57-8.81A45,45,0,0,0,796.65,439.74ZM331,436.15c-1.91,3.16-3.45,5.76-5,8.31-1.24,2-2.52,4-3.9,5.84-.4.55-1.28,1.21-1.79,1.1s-1.26-.93-1.6-1.59a6.21,6.21,0,0,1-.5-2.28c-.22-2.69-.29-5.4-.59-8.08a15.33,15.33,0,0,0-3.86-8.76c-.61,1.24-1.1,2.14-1.5,3.08a19.23,19.23,0,0,0-.56,1.87c-.42,1.28-1.28,2.57-1.23,3.83.16,4.4-2.81,7.57-4.13,11.37a2.35,2.35,0,0,1-1.92,1,1.55,1.55,0,0,1-1.54-2,1.42,1.42,0,0,0,0-.71c-1.19-3.61-2.35-7.24-3.64-10.82a18.39,18.39,0,0,0-1.9-3c-.8,2.05-1.46,3.52-1.94,5.05-1.24,3.93-2.37,7.89-2.14,12.08.07,1.34-.51,2.47-1.83,2.4a3.58,3.58,0,0,1-2.52-1.57c-1.65-2.94-3.08-6-4.52-9.06-.65-1.37-1.13-2.83-1.69-4.24l-.52,0c-.53,2.33-1,4.69-1.61,7-1.07,3.79.27,6.94,2.5,9.82,1.19,1.54,2.77,2.77,3.9,4.33a2,2,0,0,0,2,1.09c3-.19,6-.38,9-.4a56.09,56.09,0,0,1,7,.38c1.42.16,2.77.89,4.19,1,2.3.22,4.64.13,7,.22,3.33.14,6.67.48,10,.43,2.33,0,4.65-.62,7-.84,3.44-.33,6.88-.53,10.07-2.08,1.11-.54,2-1,1.35-2l6.56-5.31c-3.07-1.4-3.59-1.42-2.33-4.49a14,14,0,0,0,.86-8.84,5,5,0,0,0-.69-1.29c-1.41,2-2.55,3.79-3.9,5.44-2.42,2.94-4.77,6-8.15,7.94a3.34,3.34,0,0,1-2.3.07,1.73,1.73,0,0,1-1.08-1.21c-.24-2.93-.15-5.89-.53-8.79A43.34,43.34,0,0,0,331,436.15ZM708.11,503.9a6.92,6.92,0,0,0-.77,1c-1.8,4-3.82,8-5.29,12.11a10.88,10.88,0,0,0,1.49,10.54,2.75,2.75,0,0,1-.28,4.15c-2.48,2.23-2.78,5.27-3.23,8.14a54.59,54.59,0,0,0-.31,9.23c.13,6.1.46,12.19.59,18.29.05,2.41-.25,4.83-.29,7.25,0,1.8.05,3.61.19,5.41.1,1.35.36,2.68.6,4.33,3.4-.47,6.46-.86,9.51-1.3a22.05,22.05,0,0,1,4.2-.65c2.5.13,2.65.15,2.59-2.36-.13-5.17-.41-10.33-.4-15.5,0-6.62.39-13.24.39-19.86,0-5.05-.39-10.07-3.8-14.31a2.53,2.53,0,0,1,.21-3.62c3.08-3,3.73-6.71,2.27-10.73A39,39,0,0,0,708.11,503.9Zm-100.92,9.5.46.18a31.67,31.67,0,0,1,1.65-2.83c2.49-3.39,5-6.73,7.55-10.1a37.75,37.75,0,0,1,2.38-3.19,1.83,1.83,0,0,1,1.71-.29,10.64,10.64,0,0,1,1.81,1.91c1.74,1.82,3.2,4.16,5.3,5.31,2.78,1.51,4,3.9,5.47,6.34.23.39.7.63,1,1a22.11,22.11,0,0,1,2.3,2.74,12.79,12.79,0,0,1,.94,2.74c.06-1.21,0-2,.14-2.76,1.13-7.17.62-14.38.73-21.58.08-5.88.09-11.76.18-17.64a4.08,4.08,0,0,0-1.88-3.48c-1.38-1.07-2.87-.38-4.3-.46-4.28-.21-8.57-.43-12.85-.59-2.94-.11-5.89-.07-8.83-.2s-4.49,1.11-4.43,3.85q.11,4.43.22,8.85c.14,5,.35,10.07.42,15.1S607.19,508.36,607.19,513.4ZM655,514l.7,0c1-1.42,1.92-2.87,3-4.26,2.47-3.34,4.94-6.69,7.49-10,.5-.64,1-2.09,2.22-.95,1.32,1.29,2.41,2.83,3.63,4.22s2.23,2.52,3.44,3.67c.66.63,1.76.87,2.29,1.57,1.74,2.34,3.31,4.8,5.12,7.48.32-.65.47-.8.47-1,.09-5,.21-10,.23-15.06,0-6.66,0-13.33-.08-20-.06-3.8-.2-3.82-4-4.09a1.6,1.6,0,0,1-.54-.06c-3.3-1.5-6.88-.94-10.32-1.35s-7,0-10.5-1.18c-2-.7-3.38.63-3.41,2.75s-.07,4.23,0,6.34c.11,6.81.26,13.62.35,20.43C655.08,506.39,655,510.19,655,514Zm-14.6-215.6a25.78,25.78,0,0,0-2.85-3.7A10.81,10.81,0,0,1,634.9,290c-1.35-3.59-1.66-7.56-3.94-10.81a5.58,5.58,0,0,1-.71-1.45c-1.13-3.81-1.75-7.79-3.55-11.4a2.26,2.26,0,0,1,.06-1.4,6.75,6.75,0,0,0-3.33-7c-2.14-1-4.35.11-4.79,2.79-.32,1.88,0,3.86-.11,5.79-.09,1.31-.59,2.6-.64,3.91a36.36,36.36,0,0,1-4.4,15.17c-1.64,3.18-3.74,6.13-5.59,9.21a27,27,0,0,0-1.23,2.53c.75.26,1.19.45,1.64.58,2.38.7,2.24.63,1.22,2.85-.83,1.82-1.77,3.72-1,6.55l7-8.62c1.81.4,3.07,1,3.26,3.05.2,2.22.73,4.41,1.14,6.61a6,6,0,0,0,.42,1.06l.51.1,4.37-9.13c1.89.19,2.5,1.53,3,3.54s1.73,3.8,2.73,5.65c.08.14,1.11.06,1.19-.13a9.57,9.57,0,0,0,.93-3c.13-2,0-4.1,0-6.23a3.91,3.91,0,0,1,3.4,2.68,7.81,7.81,0,0,0,5.72,4.95c-.31-3.76-1.14-6.94-4.06-9.72Zm-94.86,176c-1.06.18-1.9.37-2.75.47-2.73.34-5.5.45-8.18,1s-5.42,1.59-8.12,2.4a4.66,4.66,0,0,0-3.62,4.66c0,2.78.24,5.55.19,8.33-.07,4.65-.28,9.31-.45,14,0,.95-.22,1.9-.22,2.85,0,3.48,0,7,0,10.06.75-.92,1.66-2,2.54-3.12a5,5,0,0,0,.68-1.07c1-2.2,1.63-4.7,4.15-5.88a3.66,3.66,0,0,0,1.24-1.29c1.48-2.06,2.91-4.15,4.66-6.65,4.25,6.74,10.75,11.49,12.83,19.08,0-2.91.05-6,0-9-.1-5.54-.13-11.09-.39-16.63-.24-5.13-.86-10.25-1.08-15.38A5.4,5.4,0,0,0,545.58,474.38Zm-1.65-2.68c.07.16,0-.09-.12-.25a2.84,2.84,0,0,1-.29-4c1.32-1.93,2.73-3.82,2.67-6.5-.11-4.55.3-9.1.27-13.65,0-3.5-.51-7-.54-10.5,0-2.06-.4-3.62-2.19-4.15a35.84,35.84,0,0,1-3.91,2.55,26.14,26.14,0,0,0-15.42,20c-.65,3-.32,6.25-.36,9.39,0,2,.06,4,1.63,5.68,1.15,1.23,1.31,2.7-.3,3.92-.26.19-.33.66-.44.91Zm156.18-38.32c.71,1.56,0,2.38-1.15,3.06-2,1.22-2.45,3-2,5.24a30.17,30.17,0,0,1,.45,5c.12,3.08.2,6.17.22,9.25,0,1.86-.14,3.73-.18,5.59,0,2.31-.08,4.67,1.86,6.37,2.41,2.1,2.44,2.06,1.26,4.91l16.12,3a25.06,25.06,0,0,0-2.31-3,1.53,1.53,0,0,1-.2-2.36,45.21,45.21,0,0,0,2.74-4,5.43,5.43,0,0,0,.74-2.7c-.21-4-.57-8-.88-12a4.41,4.41,0,0,0-.24-1.42c-1.14-2.46-2.32-4.9-3.52-7.33C710.38,437.68,705.52,435.26,700.11,433.38Zm7.8,65.2,8.25,13.52c.05-.74.16-1.69.15-2.64,0-6.43-.07-12.86-.19-19.29q-.07-4.82-.48-9.62a2.7,2.7,0,0,0-1.3-1.85c-4.36-2-9.07-2.6-13.8-2.87a2.18,2.18,0,0,0-1.57,1.42,74.87,74.87,0,0,0-.39,7.92c0,4.2.13,8.39.29,12.58.22,6.14.52,12.27.77,18.17C702.3,510.35,705,504.65,707.91,498.58ZM552.09,411.31a41.52,41.52,0,0,1,6.19-2.1c6.35-1.09,12.74-1.92,19.1-2.91,3.66-.58,7.31-1.26,11-1.93,3.22-.59,6.88.24,9.35-2.84.06-.08.22-.07.25-.08.89.54,1.75,1.52,2.56,1.48,3.89-.2,7.76-.68,12.15-1.11l-6.91-9c-1.53,3.35-2.94,6.41-4.39,9.59a5.28,5.28,0,0,1-.85-.63c-1.66-2-3.37-4.05-4.94-6.16-1.19-1.6-1.81-1.63-2.84,0-1.13,1.82-2.33,3.59-3.76,5.78l-4.92-7.1c-1.18,2.36-2.13,4.23-3.06,6.12-.4.81-.87,1-1.45.21-1.38-2-2.7-4-4.1-5.92a6.29,6.29,0,0,0-1.24-1c-.29.47-.9,1-.82,1.41.28,1.52-.73,2.43-1.36,3.54a28,28,0,0,0-1.66,3.16c-1,2.31-2.17,2.66-3.91.91-1.2-1.21-2.19-2.64-3.36-3.89-.75-.8-1.37-1.24-2,.39a58.64,58.64,0,0,1-3.23,6.31l-.67.16-4.07-6-2.4,7.76c-3.87-2.32-3-7.63-7.11-9.81-.49,4.46-.13,8.77-1.2,12.95-1.24-1.56-2.19-3.15-3.22-4.68a1.69,1.69,0,0,0-1.17-.63c-.22,0-.69.64-.66.94.2,1.58,0,3.9.93,4.55,1.37,1,3.07,2.52,5.27,1.64a34,34,0,0,0,4.54-1.66C549.78,409.76,551.06,409.67,552.09,411.31Zm96.23-11.37.62.22a20.61,20.61,0,0,0,.71,2.7c.19.48.64,1.14,1.05,1.21q4.2.69,8.43,1.14c4,.42,8.07.69,12.09,1.15a50.93,50.93,0,0,1,7.16,1.3c2.57.7,5,1.75,7.6,2.6a2.24,2.24,0,0,0,1.53,0,5.57,5.57,0,0,0,1.44-8.18L684,407.7l-6.3-8.92c-.81.77-1.41,1.44-2.12,2a23.73,23.73,0,0,1-2.4,1.52c-2.48,1.43-4.28.58-4.93-2.31-.3-1.36-.58-2.72-1-4.61-2.11,1.63-3.86,2.85-5.44,4.26-1.41,1.26-1.89,1.35-2.82-.35-1-1.93-1.92-3.95-3.07-6.33-1.61,1.82-3.29,3.5-4.73,5.38-1.07,1.39-2,1.54-2.85-.05-.91-1.75-1.6-3.63-2.43-5.43a3.06,3.06,0,0,0-1-1.34c-.2-.11-.92.4-1.21.78-1.53,2-3,4-4.46,6-1.11,1.61-1.59,1.66-2.66,0-.36-.56-.62-1.18-1-1.75-1.57-2.57-3.16-5.13-5-8.11-.8,2-1.3,3.41-1.9,4.75s-1.39,2.71-2,4.09c-1.37,3-1.57,3-3.65.52-.15-.19-.23-.43-.38-.62-1.23-1.53-2.48-3-3.8-4.67-1.7,3-3.31,5.77-4.9,8.58a7,7,0,0,0-.36.9c.6.05,1.07.14,1.54.13,4.33-.09,8.67-.4,13-.25s8.44.73,12.64,1.23a14.45,14.45,0,0,1,3.09,1.13ZM530,296.66l0-.48a9.49,9.49,0,0,1,1.6,0c2,.37,4,.86,6,1.15.39.06.87-.6,1.31-.92-1-.85-2.14-2.52-3-2.38-2.6.43-4.86-.75-7.2-1.16-2.63-.46-4.12.8-6.19,1.91,6.54,1.1,6.54,1.1,6.43,1.93a27.13,27.13,0,0,0-3.9-.33c-1,0-2,.39-2,1.83.07,2.78.08,5.56.09,8.35,0,1.92,0,3.84,0,5.5,3.45.3,6.63.49,9.79.86,1.94.23,2.17.1,2.22-1.89.1-3.49-.08-7,.55-10.44.37-2-.33-2.49-1.77-2.91S531.38,297,530,296.66Zm98-56.32c.12-2.46-1.35-3.32-2.43-4.37s-2.47-1-4-.51c-2.21.69-2.78,2.71-4,4.15-1.51,1.74-1.62,3.08-.31,4.93.79,1.12,2,2.67,3.07,2.77A6.93,6.93,0,0,0,628,240.34Zm-5.19-10.44c.64-2,.83-3.88,1.73-5.25,2.07-3.13,2-6.32.94-9.64-.61-1.94-2.43-2.35-4.27-1.58-2.2.93-2.38,2.82-2.83,4.64-.51,2.08-.5,4,1.34,5.62a9.68,9.68,0,0,1,2,3A27.94,27.94,0,0,1,622.84,229.9Zm74,170.27-.5-.23c-1.24,2-2.54,4-3.66,6.11-.23.44.16,1.24.33,1.86a23.16,23.16,0,0,0,.77,2.31c.24.59.43,1.46.88,1.65a48.58,48.58,0,0,0,4.81,1.58c1-1.44,2.52-3,3.31-4.95.86-2.07.47-4.36-.3-6.65-2.25,1.39-3,4-5.64,4.95ZM531.08,292.1a22.68,22.68,0,0,1,1.34-2.15c2.24-2.72,1.4-5.22-2-5.95a10.62,10.62,0,0,0-1.26-.18,4.22,4.22,0,0,0-4.54,2.81c-.28.74,0,2.33.52,2.65A53.6,53.6,0,0,0,531.08,292.1Zm184-.52v.14a19.44,19.44,0,0,0,2.16,0c1.61-.19,1.76-1.66,2.12-2.78a2.37,2.37,0,0,0-.46-2,4.78,4.78,0,0,0-7.51.61,3.52,3.52,0,0,0-.19,2.79c.19.58,1.19,1,1.91,1.24A6.46,6.46,0,0,0,715.12,291.58Zm-171.81,82c2.51-5.43,1.85-10.58-.8-16.06C539.59,363.25,540.93,368.36,543.31,373.56Zm163.24-77.27.21.56a11.54,11.54,0,0,0,1.88.42c1.67.08,3.34.06,5,.09,2.74,0,5.49.15,8.24.08.6,0,1.19-.69,1.78-1.06a16.61,16.61,0,0,0-2-.86c-.37-.12-1,.19-1.22,0-1.79-1.23-3.76-1-5.77-1.09a16.14,16.14,0,0,0-6.8.93A7.14,7.14,0,0,0,706.55,296.29ZM608.63,409.45c-.22,3.38-.43,6.78-.66,10.42h4.79c0-.84,0-1.5-.12-2.14-.21-1.85-.56-3.7-.64-5.56C611.89,409.52,611.54,409.15,608.63,409.45Zm6.37-.6c0,2.63,0,5.26,0,7.9s.62,3.13,3.5,2.64v-7.54C618.5,409.59,617.58,408.76,615,408.85Zm54.58,16.49c-.35-4.15-.66-8.17-1.1-12.18-.05-.48-.88-.88-1.6-1.55a10.74,10.74,0,0,0-.45,1.94c.05,3.12.24,6.25.2,9.37C666.6,425,667.62,425.52,669.58,425.34ZM637.53,537.07l.34,0V521.86l-1.45,2.95a21.2,21.2,0,0,0-1.81,3.91A5.73,5.73,0,0,0,635,532,56.41,56.41,0,0,0,637.53,537.07Zm-79.8-13.8c.2,4.79.4,9.77.61,14.75.67-1.29.8-2.85,2.67-3,.26,0,.48-.65.67-1,.79-1.63.09-3.08-.63-4.48C560,527.38,558.85,525.33,557.73,523.27Zm71.73-104.12c0-2.94-.05-5.77,0-8.59,0-1.16-.17-1.83-1.5-1.87s-1.72.79-1.65,1.84c.16,2.46.42,4.92.69,7.38C627.19,419.4,628,419.92,629.46,419.15Zm69.14,10.9c0-2.73,0-5.61,0-8.49,0-.31-.15-.86-.34-.92-2-.58-1.47-2.17-1.55-3.58a13.75,13.75,0,0,0-.73-2.51c-.52,2.88-.93,5.12-1.35,7.43C697.77,423.79,696.21,428.13,698.6,430.05Zm-41.37-18a19.58,19.58,0,0,1-.05,3.67,15.69,15.69,0,0,1-1.32,3.13,7.14,7.14,0,0,0,.85,3.41c.25.47,1.16.58,1.77.86a4.36,4.36,0,0,0,.56-1.38c.15-2.73.14-5.48.36-8.2C659.52,412,658.88,411.77,657.23,412.07Zm-36,7.57,2.38.15c1,0,1.25-.37,1-1.35a32.36,32.36,0,0,1-.83-4c-.18-1.33-.1-2.7-.33-4-.1-.61-.67-1.13-1-1.69a7.05,7.05,0,0,0-.8,1.81c-.2,1.82-.28,3.66-.36,5.5C621.16,417.23,621.2,418.44,621.2,419.64Zm42.48,4.52c.35-5.73-.33-11.61-1.66-12.51-.94,4.22-.49,8.33-.4,12.51ZM548.9,535.94V524.21c-1.27,1.89-2.54,3.68-3.68,5.54-.17.29.12,1,.38,1.39C546.6,532.67,547.67,534.16,548.9,535.94Zm57-116.25v-9.24c-.37.09-.52.08-.6.15-1.85,1.77-1.92,4.32-2.69,6.52C602.11,418.45,604,419.89,605.87,419.69ZM522.35,536.78c1.35-1.83,3.66-2.62,2.88-5.06a10.28,10.28,0,0,0-2.88-5.09ZM567,422.62c3.21-.14,3.5-.45,3.34-3a15.78,15.78,0,0,0-.19-2.49c-.13-.54-.58-1.35-.94-1.39s-1.4.49-1.48.89C567.33,418.55,567.19,420.52,567,422.62Zm112.65,3.52c-.28-3.31-.51-6.49-.84-9.65,0-.47-.5-.91-.76-1.36-.25.48-.7.95-.71,1.43-.06,2.48.09,5,0,7.43C677.22,425.56,677.8,426.23,679.61,426.14Zm241.12-53.48c-.08-2-.12-3.8-.29-5.63a1.47,1.47,0,0,0-.86-1,1.34,1.34,0,0,0-1.1.38c-.9.93-1.06,5.49-.28,6.74ZM555.19,423.44l2.3,1.69,2.51-.76c-.38-1.81-.73-3.51-1.1-5.35C556.77,420.16,555.25,421.25,555.19,423.44Zm32.61-2.86.7.17a11.82,11.82,0,0,0,1.48-2.92,13.69,13.69,0,0,0,0-4c-.05-.52-.55-1-.85-1.5-.43.43-1.21.84-1.24,1.29C587.74,415.94,587.8,418.26,587.8,420.58ZM451.47,369a13.34,13.34,0,0,0,2.16-.48,1.17,1.17,0,0,0,.67-.84c-.06-1.61-.2-3.22-.4-4.82,0-.34-.42-.86-.7-.9s-1.15.18-1.21.42C451.48,364.49,450.53,366.6,451.47,369Zm221,56.46.83.35c.24-.45.71-.92.7-1.37-.08-3.13-.23-6.27-.44-9.4a6.58,6.58,0,0,0-.66-1.79l-.43.12Zm-92.32-4.69c0-1.67.08-3.39,0-5.1,0-.57-.63-1.11-1-1.66-.4.52-1,1-1.17,1.56a26.46,26.46,0,0,0-.26,3.58C577.59,421.32,578,421.6,580.16,420.76ZM542,419.57v4.61l4.37-1.41C545.88,420.28,544.57,419,542,419.57Zm64.49,115.11-.52-.55c.89-.57,2-1,2.59-1.75s1.91-1.48.85-2.76c-.86-1-1.78-2-2.92-3.3Zm76.68-9.27c-3,3.44-3.08,6.51,0,9.58Zm98.6-161.25c.64-2.32,0-5-1.77-6.21-.62,2-1.2,3.79-1.65,5.24Zm-97.64,63.93.18-.32a12.57,12.57,0,0,1-.45-2.31c0-1.66.15-3.33.08-5-.05-1.27.17-2.74-1.22-3.56,0,3.27-.07,6.44.06,9.62C682.84,427.06,683.7,427.57,684.17,428.09ZM316.35,360.53a7.63,7.63,0,0,0-1.29-6l-.67-.05-1.57,4.94Zm385.88,16.36V365.46h-.59C699.48,369.28,701.65,373.12,702.23,376.89ZM654.35,416.6a14.56,14.56,0,0,0,.12-4.05c-.27-1.15-1.28-2.12-2-3.17l-.43.26a26.93,26.93,0,0,1,.24,4.56C652.06,416.59,651.93,416.58,654.35,416.6Zm45.32,117.86c2.31-3,2.79-5.93,0-8.86Zm-45-7.87c.14,2.66.26,5,.4,7.8,1.05-1.29,1.82-2.11,2.42-3a1.51,1.51,0,0,0,0-1.37C656.73,528.89,655.79,527.91,654.66,526.59Zm-81.58-105c1.53.13,2.1-.38,2-1.54s-.2-2.52-.39-3.77a4.27,4.27,0,0,0-.65-1.25c-.32.43-.89.85-.92,1.3C573,418.08,573.08,419.84,573.08,421.59Zm-10.24-4.11c-.19,2-.38,3.57-.45,5.2,0,.25.47.7.78.75a1.27,1.27,0,0,0,1-.46C564.78,422.07,564.07,418.68,562.84,417.48Z"/><path class="cls-9" d="M479.79,543.74c.5-3.43-.12-7.15,3-9.85,1.09-.94,1.67-2.46,2.58-3.63,1.6-2.07,4.19-2.34,6-.47a31.46,31.46,0,0,1,7.43,11.7,6,6,0,0,0,.89,1.58c.68,1,1,1.88.13,3a2.68,2.68,0,0,0-.32,1.54c0,9.66.09,19.32,0,29a16.12,16.12,0,0,1-1.2,4.44.9.9,0,0,1-.73.43c-4.67-.31-9.34-.55-14-1-1.7-.18-3.08-2.38-3.1-4.24,0-4.69,0-9.37-.1-14.06-.12-5.16-.37-10.32-.55-15.48C479.76,545.64,479.79,544.69,479.79,543.74Zm2.59,19c.6,4.19,1.07,7.92,1.7,11.62.47,2.79,1.31,3.58,3.24,3.62,2.27,0,4.55.25,6.82.17a2.6,2.6,0,0,0,1.84-1.31,7.72,7.72,0,0,0,.5-3c0-1.37-.22-2.77-.09-4.14.38-4,1-7.91-1-11.69a3.12,3.12,0,0,1-.2-1.41c0-3.68-.18-7.38.13-11a14.7,14.7,0,0,0-3.23-10.5,23,23,0,0,1-1.37-1.91c-1.05-1.72-2.6-2-3.78-.46-2,2.74-3.89,5.52-3.91,9.28C483,549,482.62,556.12,482.38,562.73Z"/><path class="cls-9" d="M419.64,556c0-2.61.53-5.37-.16-7.79-.6-2.12-.64-3.58.52-5.45,1.62-2.59,2.79-5.45,4.29-8.12a15.06,15.06,0,0,1,2.5-3.09,3.88,3.88,0,0,1,6.11.45,43.88,43.88,0,0,1,4.66,6.55,19.25,19.25,0,0,1,1.56,6.45,71.74,71.74,0,0,1,.24,7.9c0,3.53-.14,7.07-.1,10.6,0,3.9.27,7.79.33,11.69,0,2.12.84,4.6-1.33,6.07a9.41,9.41,0,0,1-4.65,1.58,75.78,75.78,0,0,1-10.44-.29c-1.75-.17-2-2.19-2.19-3.46a91.69,91.69,0,0,1-.77-10.35c-.12-4.24,0-8.49,0-12.74Zm16.74-3.21.38,0c-.41-3.24-1-6.47-1.19-9.73-.21-3.66-2.33-6.27-4.4-8.91-1-1.29-2.55-.92-3.42.54a10.19,10.19,0,0,1-.91,1.34c-3.89,4.51-3.59,9.82-3.1,15.24.25,2.85.7,5.89,0,8.56a27.84,27.84,0,0,0-.71,6.55,60.4,60.4,0,0,0,.44,6.84,21.59,21.59,0,0,0,.71,4.62,2.9,2.9,0,0,0,2,1.67c2.19.25,4.43.11,6.65.19,1.35,0,2.43-.19,2.64-1.78.56-4.19,1.44-8.37,1.6-12.57S436.63,556.94,436.38,552.76Z"/><path class="cls-9" d="M357.57,548.74c.23-2.7.29-5.71.8-8.64a14.07,14.07,0,0,1,2.09-4.44,46,46,0,0,1,3-4.21,3.74,3.74,0,0,1,5.46-.52,30.51,30.51,0,0,1,7.62,11.78,5.27,5.27,0,0,0,.67,1.26c.79,1.16,1.43,2.26.24,3.6-.3.33-.21,1-.21,1.57,0,9.59.06,19.19,0,28.78a15.42,15.42,0,0,1-1.21,4.26.93.93,0,0,1-.74.41c-4.49-.27-9-.44-13.47-.91-2-.22-3.37-2.41-3.38-4.56,0-4.62,0-9.25-.11-13.86S357.83,553.78,357.57,548.74Zm2.75,15.06c.6,4.37,1,8.11,1.66,11.8.61,3.38,1.28,3.65,4.74,3.37a18.17,18.17,0,0,1,4.65.34,1.88,1.88,0,0,0,2.46-1.48,14.4,14.4,0,0,0,.41-2.85c.09-1.55.1-3.1.11-4.65,0-3.59.86-7.25-1-10.66a2,2,0,0,1-.29-.86,48.41,48.41,0,0,1,.09-7.23,22.17,22.17,0,0,0-.38-9.24c-.89-3-2.88-5.79-4.68-8.48a1.85,1.85,0,0,0-3.23.19c-1.78,2.76-3.79,5.31-3.82,9C361,550.16,360.57,557.3,360.32,563.8Z"/><path class="cls-9" d="M807.05,577.07c-.13-4.13-.22-8.27-.42-12.41-.17-3.41-.53-6.81-.7-10.23a58.32,58.32,0,0,1,0-6.06,37.91,37.91,0,0,1,.59-6.59,19.54,19.54,0,0,1,2.21-5,40.85,40.85,0,0,1,2.9-4.29,3.88,3.88,0,0,1,5.61-.62,29.25,29.25,0,0,1,7.61,11.36,6.14,6.14,0,0,0,.93,1.55,2.1,2.1,0,0,1,.11,2.82,3.15,3.15,0,0,0-.31,1.73c0,9.42.16,18.84.11,28.25a17,17,0,0,1-1.11,4.49,1.09,1.09,0,0,1-.81.55c-2.82.08-5.65.12-8.48.15a18.59,18.59,0,0,1-3.58,0C807.82,582,807.08,581.09,807.05,577.07Zm1.63-12.44c.6,4,1.06,8,1.83,11.89.57,2.91,1.55,3.44,3.84,3.22a34.15,34.15,0,0,1,5.72-.07,1.89,1.89,0,0,0,2.21-1.39,12.77,12.77,0,0,0,.48-3c.09-1.61.14-3.22.11-4.82-.06-3.52.77-7.15-1.14-10.47a2.62,2.62,0,0,1-.33-1.22c0-1.79,0-3.58,0-5.37,0-3,.2-6.09.05-9.12-.2-3.88-3-6.54-5-9.48-.6-.85-2.13-1.34-2.86-.18-1.55,2.47-3.7,5-4,7.73C808.83,549.72,808.92,557.2,808.68,564.63Z"/><path class="cls-9" d="M746,554.93c0-1.91.61-4.73-.18-7.07s-.18-3.82.54-5.79a32.29,32.29,0,0,1,7.29-11.77,4,4,0,0,1,5.18.24,41.52,41.52,0,0,1,4.86,6.58,17.61,17.61,0,0,1,1.68,6.55c.35,4,.37,8.1.41,12.16.05,4.81-.06,9.62,0,14.43,0,2,.27,3.94.37,5.91a4.06,4.06,0,0,1-3.45,4.56c-3.31.45-6.68.54-10,.77-.43,0-.85,0-1.28-.06-.83,0-2.1.31-2.42-.1a7.09,7.09,0,0,1-1.51-3.53C746.89,570.43,746.5,563,746,554.93Zm16.77-3.82.16,0c-.19-2.17-.25-4.37-.62-6.52a58.4,58.4,0,0,0-1.69-6.78,7.16,7.16,0,0,0-1.5-2.47c-.89-1-1.8-2.26-3-2.66s-2.06.88-2.55,2.06c-.09.21-.32.36-.47.55-3.76,4.54-3.71,9.82-3,15.24a17.32,17.32,0,0,1,.28,2.15c0,2.15.53,4.53-.24,6.38-.83,2-.59,3.92-.69,5.83a51.85,51.85,0,0,0,.5,7.55,31.5,31.5,0,0,0,.72,4.45c.3,1.19,1.1,1.66,2.47,1.48a41.81,41.81,0,0,1,5.71-.18c1.5,0,2.83,0,3.08-1.95.5-3.71,1.36-7.41,1.45-11.13C763.55,560.44,763,555.77,762.78,551.11Z"/><path class="cls-9" d="M887.32,545.38c.13,2.44.34,4.87.38,7.31,0,3.42-.09,6.84,0,10.26.06,3.83.3,7.66.37,11.48,0,2.18.88,4.7-1.34,6.24a10,10,0,0,1-4.58,1.74,82,82,0,0,1-10.28.2c-2-.07-2.14-2.1-2.36-3.43a75.24,75.24,0,0,1-.76-8.89c-.3-6.91-.51-13.83-.75-20.75,0-.24.1-.53,0-.72-2.13-3.93.91-6.8,2.27-9.84a33.11,33.11,0,0,1,5.07-7.25A3.77,3.77,0,0,1,881,532c1.56,1.94,3.37,3.78,4.48,6s1.56,4.84,2.3,7.28Zm-2.57,6.73.27,0c-.36-2.83-.66-5.66-1.11-8.48a23.84,23.84,0,0,0-1.14-4.49,26.83,26.83,0,0,0-1.7-3c-1.58-3-3.55-3.18-5.41-.39a1.55,1.55,0,0,1-.24.27c-3.87,3.94-3.66,9-3.71,13.93a82.16,82.16,0,0,0,.87,8.22,3.09,3.09,0,0,1-.31,2.08c-1.49,1.74-.65,3.79-.79,5.63a45.77,45.77,0,0,0,.5,7.73,27.77,27.77,0,0,0,.76,4.45,1.8,1.8,0,0,0,2.15,1.44c2.08-.21,4.18-.21,6.26-.22,1.38,0,2.56-.17,2.79-1.86.51-3.71,1.38-7.41,1.47-11.13C885.52,561.57,885,556.84,884.75,552.11Z"/><path class="cls-9" d="M469.28,552.53c.26,3.72.65,7.82.8,11.94s.07,8.12.05,12.18a3.62,3.62,0,0,1-3.48,3.71c-3.84,0-7.69-.1-11.52-.35-.68,0-1.48-.89-1.92-1.56-2.07-3.2-1.5-6.76-1.33-10.29.14-3-.07-5.94-.11-8.91,0-1.88,0-3.75,0-5.62,0-2,.21-4.07,0-6.08a16.13,16.13,0,0,1,1.84-8.65c1-2.11,1.64-4.47,2.85-6.47,1.57-2.56,3.46-3.26,5.68-.59C467.1,537.74,470.36,544.16,469.28,552.53ZM460,532.78c-2,4-3.81,7.65-5.57,11.32a4.3,4.3,0,0,0-.21,1.8c.15,5.56.27,11.13.49,16.7.16,4.36.46,8.71.66,13.07.05,1.23.68,1.92,1.79,1.82,2.56-.24,5.12-.6,7.66-1.08.42-.08,1-.95,1-1.49.28-4.25.51-8.51.66-12.77.12-3.23-.19-6.49.21-9.68a23.41,23.41,0,0,0-4-17A25,25,0,0,0,460,532.78Z"/><path class="cls-9" d="M347.34,554c.24,3,.68,6.66.8,10.36.14,4.36.05,8.73,0,13.09,0,2.79-.3,2.84-3,3.63-4,1.17-7.88.59-11.8.08-.73-.09-1.5-1-2-1.69-2.18-3.13-1.35-6.67-1.3-10.12.05-4.48-.08-9,0-13.44.06-4.66-.77-9.41,1-13.92a75.63,75.63,0,0,1,3.76-8.36c1.45-2.65,3.45-2.74,5.42-.44C345.23,539,348.43,545.39,347.34,554Zm-9.18-19.48c-1.54,2.8-3.24,5.46-4.48,8.31a19.39,19.39,0,0,0-1.14,5.75,38.6,38.6,0,0,0,.13,4.92c.13,4.9.22,9.81.38,14.71.09,2.83.29,5.65.4,8.48.05,1.37.74,2.08,2.06,2,2.15-.18,4.28-.51,6.42-.75,1.19-.14,1.92-.68,2-1.94.19-4.26.43-8.51.58-12.77.12-3.42-.07-6.87.27-10.27.43-4.44.13-8.66-2-12.64C341.6,538.12,340.66,535.78,338.16,534.53Z"/><path class="cls-9" d="M836.9,572.94c0-7.93-.07-15.86,0-23.79.08-6.58,3.43-11.72,7.74-16.33.84-.9,3-.24,4,1.22a15.3,15.3,0,0,1,1.71,3,100.43,100.43,0,0,1,4,10.2c.56,1.94.17,4.15.22,6.23,0,1.63.09,3.25.17,4.87.2,4.11.4,8.21.63,12.31,0,.94.19,1.89.31,2.82a12.24,12.24,0,0,1-1.43,7.13,2.17,2.17,0,0,1-1.51,1.07c-2.85.15-5.72.28-8.57.16a25,25,0,0,1-5.39-1,2.09,2.09,0,0,1-1.14-1.5c-.25-2.11-.31-4.24-.44-6.36Zm8.78-37.53a2.62,2.62,0,0,0-.54.2,2.1,2.1,0,0,0-.59.42c-3.49,4.09-5.48,8.74-5.06,14.21.23,2.93.64,5.84.84,8.77.35,5.21.56,10.44.9,15.65.21,3,.67,3.42,3.65,3.91a23.82,23.82,0,0,1,2.62.64c3.17.89,4.68-.19,4.75-3.5.11-5.38.26-10.76.23-16.13,0-3.51-.32-7-.55-10.51a10.39,10.39,0,0,0-.59-3.91C849.62,541.86,847.61,538.7,845.68,535.41Z"/><path class="cls-9" d="M408.19,553.72c.26,3.82.66,8,.8,12.17s0,8.48.06,12.72c0,1.45-.6,2.31-1.88,2.39-4.33.28-8.68.48-13,.51-.66,0-1.5-1-2-1.69-2.13-3.14-1.42-6.66-1.29-10.13.1-2.9-.05-5.81-.07-8.73,0-1.93,0-3.86,0-5.79a38.68,38.68,0,0,0,0-6.09c-.43-2.74.58-5.15,1.25-7.61a39.35,39.35,0,0,1,2.6-5.94,14.06,14.06,0,0,1,1-1.74c1.59-2.39,3.52-2.6,5.37-.45C405.94,539.08,409.31,545.43,408.19,553.72Zm-8.62-19.39-.75.44c-1.77,3.47-3.58,6.93-5.28,10.43a5.25,5.25,0,0,0-.36,2.31q.22,8.81.54,17.61c.15,4,.42,8,.58,11.93.05,1.4.74,2.09,2,2,2.44-.25,4.88-.57,7.29-1,.44-.08,1-.92,1-1.46.35-2.92.7-5.86.79-8.81.15-5-.23-10,.23-14.89a23.38,23.38,0,0,0-4.1-15.74C401,536.12,400.24,535.24,399.57,534.33Z"/><path class="cls-9" d="M775.92,571.58c0-7.93,0-15.87,0-23.8,0-6.6,3.42-11.72,7.68-16.36.86-.93,3-.36,4,1.09a13.86,13.86,0,0,1,1.71,3,100.5,100.5,0,0,1,4,10.2c.57,1.94.21,4.14.27,6.23,0,1.68.08,3.37.16,5.05q.27,6.15.59,12.31c0,.82.24,1.64.34,2.46a12.28,12.28,0,0,1-1.39,7.32,2.38,2.38,0,0,1-1.67,1.12c-2.4.08-4.8-.05-7.2-.09l-4.19-.05c-2.88,0-3.52-.57-3.73-3.37-.13-1.69-.18-3.4-.27-5.09Zm8.67-37.86a15,15,0,0,0-5.8,10.67c-.53,5.44.21,11,.51,16.52.21,4,.68,7.89.89,11.84.17,3.13.76,3.91,3.79,4.38a18.6,18.6,0,0,1,2.45.59c3.11.92,4.77-.2,4.82-3.38s0-6.26,0-9.39q-.11-9.36-.27-18.71a5.08,5.08,0,0,0-.5-2.29C788.6,540.59,786.65,537.28,784.59,533.72Z"/><path class="cls-9" d="M908.46,581c-2,.14-4.08.3-6.13.4a3.73,3.73,0,0,1-3.85-3.42c-.12-2.43-.16-4.86-.21-7.29-.13-7.26-.34-14.53-.35-21.79,0-6.6,3.37-11.73,7.65-16.37.88-.95,2.93-.4,4,1a14.41,14.41,0,0,1,1.64,2.82c1.48,3.34,3.54,6.48,4,10.18.27,2.12.23,4.28.31,6.42.06,1.68.07,3.37.15,5q.27,6.15.6,12.3c.06,1.07.24,2.13.36,3.2a11.88,11.88,0,0,1-1.5,6.74,2.18,2.18,0,0,1-1.59.84c-1.7.1-3.41,0-5.11,0Zm-2-46.2a15.64,15.64,0,0,0-5.71,10.66c-.51,5.44.21,11,.51,16.52.21,3.94.68,7.88.89,11.83.17,3.17.81,4,4,4.45a15.92,15.92,0,0,1,2.27.53c3.12,1,4.78-.16,4.85-3.34.11-5.44.27-10.88.24-16.31,0-3.45-.24-6.9-.59-10.32a18.75,18.75,0,0,0-1.36-5.54A60.73,60.73,0,0,0,908,537C907.53,536.33,907.05,535.67,906.47,534.81Z"/><path class="cls-9" d="M975.34,472.79c-.91.58-1.5.73-1.66,1.08-.68,1.57-1.29,1.42-2,.05a.84.84,0,0,0-.56-.4c-1.44-.16-2.9-.21-4.33-.44-.48-.08-.9-.57-1.34-.87.44-.32.89-.91,1.34-.91a54,54,0,0,1,6.1.28A9.22,9.22,0,0,1,975.34,472.79Z"/><path class="cls-9" d="M620.15,316.44c0,1.86-.12,3.73,0,5.59q.58,8,1.39,15.92a3,3,0,0,0,1.24,1.77,12.27,12.27,0,0,1,4.63,6.48,7.1,7.1,0,0,0,1.21,2.41c2.43,3,2.28,6.13,1,9.43-1,2.45-1.45,5.51-3.21,7.17-2.72,2.57-2.09,5.28-2,8.21,0,5-.06,10.07-.12,15.11a2.58,2.58,0,0,1-.37,1.22c-.28-3.13-.54-6.26-.85-9.39q-.59-6-1.25-12a2.69,2.69,0,0,0-.56-1.5,21.63,21.63,0,0,1-6.13-12.6c-.32-2.29.48-4.88,1.29-7.15s2.26-4.05,3.37-6.09a2.93,2.93,0,0,0,.15-1.4c-.12-3.69-.31-7.37-.39-11.06-.06-2.71,0-5.42,0-8.13v-3.93ZM624.26,345c-1.9-.2-2.78.27-3.25,1.59-.31.9-1,1.67-1.29,2.58a11.24,11.24,0,0,0-.72,4.3c.44,3.19.54,6.55,2.83,9.19.38.45.8,1.25,1.17,1.23a3,3,0,0,0,2-.93,5.83,5.83,0,0,0,.82-2.33c.39-1.68.75-3.38,1-5.08.27-1.52.82-3.13.54-4.57a21.35,21.35,0,0,0-2.2-5.13A2.69,2.69,0,0,0,624.26,345Z"/><path class="cls-9" d="M668.39,324.92a39.22,39.22,0,0,1,9.55,15.48c1,3.09,1.8,6.25,2.72,9.36.51,1.72,1.18,3.4,1.62,5.13a39.4,39.4,0,0,1,1.53,7.43,20.44,20.44,0,0,1-1.12,5.9,19,19,0,0,1-1.61,4.38c-2.66,4.72-2.11,10.45-4.83,15.13-1.22,2.11-2.42,4.23-3.63,6.35l-.68-.33a5.82,5.82,0,0,1,.47-1.35c2.55-4,2.73-8.73,3.81-13.17.39-1.64.38-3.39.84-5a7,7,0,0,0-.75-5.38c-2-4-1.94-8.17-.55-12.34.73-2.18,1.63-4.29,2.37-6.46a5.31,5.31,0,0,0,0-1.73c-.24-6.42-2.89-11.94-6.32-17.2C670.53,329.19,669.56,327.07,668.39,324.92ZM679,370.23c3.3-5.1,2.75-10.35,1.44-15.66-.06-.26-.5-.52-.8-.58s-.53.32-.61.56c-.3.92-.47,1.88-.79,2.79A15.18,15.18,0,0,0,679,370.23Z"/><path class="cls-9" d="M639.71,325.48c1.52,5.13,3,10.26,4.63,15.6,1.93-.53,3.09,1.08,4.4,2.51.92,1,2.07,1.79,2.93,2.83a9.69,9.69,0,0,1,2.59,6.85,32.61,32.61,0,0,1-3.53,11.81,60.54,60.54,0,0,0-3.17,6.91,49.48,49.48,0,0,0-1.25,6.93,4.53,4.53,0,0,1-.82,2.15,18.11,18.11,0,0,1-.15-1.93c.12-2.66.29-5.32.41-8a3,3,0,0,0-.29-1.19c-1.2-2.69-2.83-5.28-3.56-8.1a112.78,112.78,0,0,1-2.06-12.46,4.81,4.81,0,0,1,.67-2.22,10.46,10.46,0,0,1,1.06-1.91c1.73-2.41,1.33-5,.58-7.57s-1.75-5.37-2.5-8.09a30.37,30.37,0,0,1-.57-4.05Zm6.59,41.42a7.08,7.08,0,0,0,1-1.33c1.3-4,2.7-8,3.8-12a8.47,8.47,0,0,0-4.14-9.19c-.45-.23-1.33-.39-1.57-.15-2.65,2.65-3.25,6.07-2.86,9.55a81.83,81.83,0,0,0,2.1,10.21A12.29,12.29,0,0,0,646.3,366.9Z"/><path class="cls-9" d="M603.18,323.23c-.56,3.43-1.26,6.85-1.61,10.31a55.35,55.35,0,0,0,.08,7,.93.93,0,0,0,.26.65c2.61,2,3.58,5.06,4.69,7.85a15.56,15.56,0,0,1,.43,10.4c-.74,2.4-1.32,4.85-2,7.26a12,12,0,0,1-1.32,3.29c-1.23,1.81-.78,3.73-.71,5.64.12,3.24.24,6.49.35,9.73,0,.21-.1.42-.48.63q-.78-7.32-1.59-14.66c-.07-.58-.06-1.37-.42-1.68-2.54-2.2-3.19-5.3-4.05-8.28-.79-2.76-1.48-5.56-2.06-8.37a6,6,0,0,1,.22-3,17.39,17.39,0,0,1,2.21-4.92c2.71-3.56,2.49-7.79,3.2-11.83.6-3.42,1.42-6.79,2.15-10.19Zm2.27,30.17c-.58-2.39-1.1-4.24-1.47-6.12s-2-1.7-3.16-1.56c-.69.09-1.37,1.18-1.8,1.95a21.19,21.19,0,0,0-1.44,3.44,4.23,4.23,0,0,0-.36,2c.72,3.78,1.47,7.56,2.38,11.29a10,10,0,0,0,1.63,2.65,11.17,11.17,0,0,0,1.46-2.5C603.71,360.77,604.6,356.9,605.45,353.4Z"/><path class="cls-9" d="M660.91,392.09l2-11.34c.34-2,.69-3.93,1-5.9a2.51,2.51,0,0,0-.06-1.42,3.77,3.77,0,0,1,.2-3.82,2.37,2.37,0,0,0-.41-2c-2.77-3.6-3.38-7.93-3.73-12.17-.19-2.22,1-4.55,1.56-6.83a8.33,8.33,0,0,0,.55-2.28,10,10,0,0,0-.68-2.34c-.44-1.55-.88-3.1-1.29-4.65a78.37,78.37,0,0,1-1.74-7.72c.46.51,1.14.95,1.33,1.54.88,2.75,1.64,5.54,2.39,8.34.35,1.33.47,2.61,2.51,2.44.6-.06,1.51,1.24,2,2.08A26.14,26.14,0,0,1,670,357.55a21.2,21.2,0,0,1-2.1,10.52c-1.24,2.48-2.4,4.86-2.36,7.8,0,2-.77,4-1.19,5.94-.19.89-.29,1.8-.54,2.67-.74,2.6-1.53,5.19-2.3,7.78Zm4.05-24.9c.33-.23.54-.3.6-.43A25.56,25.56,0,0,0,667,351.49c-.24-1.18-.59-2.95-2.5-3.32C661.37,354.62,662.06,360.87,665,367.19Z"/><path class="cls-9" d="M578.51,317.23c-.52,1.44-1,2.91-1.58,4.31-1.2,2.82-2.56,5.57-3.71,8.41-1.52,3.72-2.94,7.5-4.34,11.27-.46,1.22-.57,2.59-1.14,3.74-1.31,2.67-.49,5.12.45,7.6.61,1.58,1.25,3.15,1.78,4.76,1.1,3.35.31,6.53-1,9.67a54,54,0,0,0-2,5.78c-.85,3-.16,6,.77,8.89.77,2.41,1.14,4.94,1.8,7.95a24.61,24.61,0,0,1-1.58-3.42c-.92-3.54-1.86-7.08-2.5-10.68-.35-2,0-4.14-.17-6.2a8.39,8.39,0,0,0-.83-3.08c-1.72-3.39-3-6.92-2.81-10.72a45.91,45.91,0,0,1,1.64-7.57,1.26,1.26,0,0,1,.67-.81c2-.55,2-2.32,2.47-3.82,1.14-3.38,2.1-6.84,3.56-10.07,1.93-4.26,4.25-8.35,6.43-12.5.62-1.2,1.35-2.34,2-3.51Zm-12.93,33.49c-2.85,2.27-2.4,10.75.73,15.72C569.06,361.58,569.18,357.22,565.58,350.72Z"/><path class="cls-9" d="M581.68,371.54a34.07,34.07,0,0,1-2.23-4.54,84.09,84.09,0,0,1-2.76-9.9c-.25-1.29.43-2.82.89-4.17a43,43,0,0,1,2.67-7.05c2.41-4.46,2.25-9.58,4-14.18,1-2.75,2.28-5.41,3.39-8.13A48.16,48.16,0,0,1,590,318.2c-1.25,2.69-.29,5.87-2.26,8.51-1.08,1.45-1.4,3.49-2,5.3-.74,2.38-1.77,4.75-2,7.19s-.79,4.64.16,7.24c1.48,4,2,8.43,2.85,12.68a1.46,1.46,0,0,1,0,.72c-1.3,3.62-2.59,7.23-4,10.82-.15.37-.77.56-1.18.84Zm-.38-4.46c3.56-6.41,4.07-12.81.8-19.83-1.05,2.81-2.16,5.26-2.88,7.81C578,359.31,580.24,363,581.3,367.08Z"/><path class="cls-9" d="M686.13,339.33c.92,2.38,1.78,4.78,2.77,7.12a52.41,52.41,0,0,0,3.2,6.92c1.32,2.17,1.51,4.55,2,6.88.55,2.66,1,5.33,1.35,8a9.74,9.74,0,0,1-.56,3c-.11.52-.32,1-.45,1.53-.36,1.46-.41,3.09-1.13,4.33-1,1.72-.92,3.45-.95,5.26-.07,3.83-1.82,7.1-3.62,10.33-.77,1.39-1.76,2.66-2.66,4l-.4-.23c1.07-2.34,2.18-4.66,3.17-7a11.5,11.5,0,0,0,.74-2.95c.44-3.22.82-6.45,1.17-9.69a3.17,3.17,0,0,0-.26-1.38,26,26,0,0,1-.76-17.76c.93-2.88.22-5.59-.88-8.31-1.31-3.22-2.39-6.54-3.57-9.81Zm5.49,21.79c-1.54,4.85-1.49,9.39.07,12.11C693.85,370.19,693.87,363.31,691.62,361.12Z"/><path class="cls-9" d="M563.4,331.21c-1.62,3.25-3.26,6.5-4.85,9.76-.64,1.31-1.25,2.64-1.78,4-.81,2.08-1.59,4.17-2.27,6.29a5.58,5.58,0,0,0-.36,2.9,54.39,54.39,0,0,0,2.47,7.22c1.43,3.34.49,6.55-.36,9.73-.41,1.53-1.45,2.88-2,4.37a4.51,4.51,0,0,0-.2,2.44c.54,2.29,1.32,4.53,1.88,6.82s.94,4.53,1.4,6.79l-.53.13c-1.15-4.47-2.43-8.91-3.42-13.42-1.11-5.07-1.59-10.3-3.78-15.09-1.38-3-.64-5.73,1-8.37a36.17,36.17,0,0,0,2.53-4.39c1.27-2.77,2.35-5.63,3.58-8.42,1-2.32,2-4.67,3.21-6.87a33.12,33.12,0,0,1,3.17-4.06Zm-9.7,39.11c1.44-4.44,2.18-8.65-.53-12.74-2.27,1.13-2.22,2.9-1.81,4.75.47,2.16,1,4.32,1.53,6.46A7.92,7.92,0,0,0,553.7,370.32Z"/><path class="cls-9" d="M581.62,371.5c.23,2.5.45,5,.69,7.5.12,1.18.29,2.35.44,3.53l-.6.08c-.45-3.29-.94-6.58-1.31-9.88,0-.36.54-.79.84-1.19Z"/><path class="cls-9" d="M652.86,322.11q2,3,4,6.08l-.49.31-4-6.06Z"/><path class="cls-9" d="M977.16,472.47a.83.83,0,0,1,.46.09c.22.16.24,1.85.62,2.67a.1.1,0,0,0,.1.06c.15,0,.38-.25.62-.35,0,.67.12.94.31.92s.18-.07.28-.18l0,.47L980,476c.29,2.55.93,5.44.47,7.82a13.65,13.65,0,0,1-.49,1.9,4.16,4.16,0,0,0,.09,1.18c-.29.36-.62.25-.93.38.25,1.77.64,5.48-.28,5.55a.32.32,0,0,1-.13,0c0,1.46-.5,1.68-.59,3.18-.14,2-.27,4.52-.36,7-.1,1.36-.11,2.68-.14,4,0,.5,0,1,0,1.44-.3,9.93.45,17.36-.46,27a193.46,193.46,0,0,0-.21,28.51c.49,8.49,1.27,15.13,1.42,17.55l-.37,1.39c-1-3.18-1.23-13.82-1.65-18.48-.11-1.79-.2-3.16-.31-4.19l0-.2s.09,1.82.34,4.39c.06,1.36.14,3,.24,4.85-.43-2.37-.85-4.66-1.19-6.3,0-1.19-.07-2.39-.1-3.61-.17-5.38-.19-10.58-.42-15.91-.1-1.94-.09-6.14-.28-8q0,11.72.24,23.44c0-.22,0-.43-.07-.64l-.43-12.35c0-.69,0-1.4-.07-2.13l.07,2.13c0,1.83-.1,3.59-.12,5.58,0,1.22.18,2.64.21,3.87,0,1,.22,1.94.34,2.9l.07,1.84c0,.18,0,.37,0,.57l0,0c-.83-1.57-2-17.17-1.78-19.72.12-2,.79-3.85.88-6.12a9.89,9.89,0,0,1,0-2c.1,0,.18-.33.26-.62.07-1.51-.3-3.07,0-4.2.13-.8-1.49-3.26-1.18-3.4,1.12-.52.31-.14.23-2.09,0-.23.44-.94.4-1.41-.26-1.61.13-2,.29-3.83.4-2.64-.31-3.31.45-5.61.08-.28.61-3.95.61-3.95,0-2.93.56-4.66-.18-7,.75-2.53,0-6.13.23-8.91s-.32-4-.72-6.54a9,9,0,0,0-.13-1.66c-.14-.43.32-1.36.27-2.07l-.31.13c0-.24,0-.71-.07-1s-.06-.19-.12-.18l-.11,0a.94.94,0,0,1-.22.07c-.13,0-.24-.06-.33-.33-.14-1-.24-2-.3-3.05.19-1,.39-2,.62-2.91a.74.74,0,0,0,.4-.19l.26-.84a.71.71,0,0,1,.28-.06H975a.33.33,0,0,0,.15,0,1,1,0,0,0,.24,0,2.64,2.64,0,0,0,.93-.32,2.71,2.71,0,0,1,.89-.31"/><path class="cls-9" d="M266.43,465.39a.75.75,0,0,0-.45.14c-.21.19-.11,2.06-.43,3a.1.1,0,0,1-.1.07c-.14,0-.39-.24-.64-.33.07.74-.05,1-.24,1a.41.41,0,0,1-.29-.18v.52l-.43-.15c-.1,2.84-.54,6.08.08,8.67a16.55,16.55,0,0,0,.63,2.06,5.72,5.72,0,0,1,0,1.31c.32.38.64.23.95.35-.11,2-.24,6.1.68,6.1l.13,0c.09,1.61.62,1.81.81,3.46.28,2.18.59,5,.86,7.72.2,1.49.3,2.94.43,4.41,0,.55.09,1.08.14,1.58,1,10.94.78,19.2,2.37,29.76a237.32,237.32,0,0,1,2.24,31.47c.11,9.41-.2,16.8-.17,19.49l.46,1.5c.77-3.59.25-15.36.34-20.54,0-2,0-3.5,0-4.64a1.85,1.85,0,0,1,0-.23s0,2,0,4.87c0,1.51.06,3.29.1,5.38.26-2.65.51-5.21.74-7.05-.05-1.31-.1-2.64-.16-4-.21-5.95-.56-11.69-.71-17.6,0-2.15-.34-6.79-.29-8.89q.78,12.95,1.42,25.91l0-.71-.44-13.67c-.05-.77-.08-1.55-.09-2.36l.09,2.36c.12,2,.34,4,.5,6.14.07,1.36,0,2.94.08,4.29,0,1.12-.08,2.17-.14,3.24l.06,2c0,.19.06.4.08.62v0c.71-1.81.73-19.11.37-21.92-.26-2.25-1.06-4.18-1.31-6.68a11.92,11.92,0,0,0-.16-2.2c-.1,0-.2-.35-.3-.66-.17-1.66.08-3.41-.32-4.64-.19-.87,1.25-3.71.94-3.85-1.16-.48-.32-.13-.38-2.28,0-.26-.51-1-.5-1.53.14-1.79-.28-2.23-.56-4.2-.58-2.88.07-3.68-.85-6.16-.1-.31-.89-4.32-.89-4.32-.16-3.24-.89-5.1-.32-7.79-.93-2.73-.46-6.77-.86-9.82s0-4.47.26-7.28a10,10,0,0,1,0-1.84c.1-.49-.42-1.47-.42-2.26l.32.12v-1.05c0-.17,0-.22.11-.22l.11,0a.6.6,0,0,0,.23.06c.12,0,.23-.09.3-.39.07-1.12.1-2.25.08-3.4-.26-1.07-.53-2.12-.82-3.15a.8.8,0,0,1-.42-.19l-.31-.91a1,1,0,0,0-.29,0h-.21l-.2,0a.37.37,0,0,1-.15,0l-.24,0a2.57,2.57,0,0,1-.94-.27,2.48,2.48,0,0,0-.92-.28"/></svg>