<svg id="Layer_1" data-name="Layer 1" xmlns="http://www.w3.org/2000/svg" viewBox="0 0 1056.97 768"><defs><style>.cls-1{fill:#fff;}</style></defs><title>Artboard 1</title><path class="cls-1" d="M344.32,68c-.53,5.79,8.48,5.79,8.48,0,.53-5.27-8.48-5.27-8.48,0C343.79,70.59,344.32,65.85,344.32,68Z"/><path class="cls-1" d="M54.93,79c0,2.63,3.18,2.63,3.18,0,.53-2.11-2.65-2.11-3.18,0Z"/><path class="cls-1" d="M819.22,111.15c0,2.63,3.18,2.63,3.18,0A1.59,1.59,0,0,0,819.22,111.15Z"/><path class="cls-1" d="M11.47,343.42c0,2.64,3.18,2.64,3.18,0S11.47,340.79,11.47,343.42Z"/><path class="cls-1" d="M586.54,700.53c-5.83.52-5.3,9,.53,9C592.37,709,591.84,700.53,586.54,700.53Z"/><path class="cls-1" d="M18.89,23.19c5.83,0,5.83-9,0-8.43C13.59,14.76,13.59,23.19,18.89,23.19Z"/><path class="cls-1" d="M69.24,623.63c0,5.79-8.48,5.79-8.48,0S69.24,617.83,69.24,623.63Z"/><path class="cls-1" d="M315.7,682.09c0,2.11-3.71,2.64-3.71,0S315.7,680,315.7,682.09Z"/><path class="cls-1" d="M520.29,416.63c2.65,0,2.65-3.16,0-3.16s-2.65,3.69,0,3.16Z"/><path class="cls-1" d="M78.25,438.23c0,2.11-3.71,2.63-3.71,0C74.54,436.12,78.25,436.12,78.25,438.23Z"/><path class="cls-1" d="M43.8,658.92c0,2.1-3.71,2.63-3.71,0C40.09,656.81,43.8,656.81,43.8,658.92Z"/><path class="cls-1" d="M717.45,113.78c5.83,0,5.83-9,0-8.43C711.62,104.83,711.62,113.78,717.45,113.78Z"/><path class="cls-1" d="M51.22,397.67c5.83,0,5.83-8.95,0-8.42C45.39,388.72,45.39,397.67,51.22,397.67Z"/><path class="cls-1" d="M557.39,752.14c5.83,0,5.83-8.95,0-8.42C551.56,743.19,551.56,752.14,557.39,752.14Z"/><path class="cls-1" d="M627.35,489.85c-5.83,0-5.3,8.95,0,8.95C633.18,498.8,632.65,489.85,627.35,489.85Z"/><path class="cls-1" d="M273.83,494.59c-5.83,0-5.3,9,0,9C279.66,503.54,279.13,494.59,273.83,494.59Z"/><path class="cls-1" d="M40.09,506.17c-5.83,0-5.3,9,0,9,5.83-.53,5.83-9.48,0-9C38,506.17,42.74,505.65,40.09,506.17Z"/><path class="cls-1" d="M18.89,149.6c0-5.8,8.48-5.8,8.48,0C27.9,154.86,19.42,154.86,18.89,149.6Z"/><path class="cls-1" d="M25.78,221.23c0-2.11,3.71-2.63,3.71,0C29.49,223.34,25.78,223.86,25.78,221.23Z"/><path class="cls-1" d="M283.9,436.65c0-2.11,3.71-2.63,3.71,0C288.14,438.76,284.43,439.28,283.9,436.65Z"/><path class="cls-1" d="M376.12,468.78c0-2.11,3.71-2.64,3.71,0S376.12,470.89,376.12,468.78Z"/><path class="cls-1" d="M298.74,628.9c0-2.11,3.71-2.64,3.71,0C302.45,631,298.74,631,298.74,628.9Z"/><path class="cls-1" d="M692.54,444.55c0-2.11,3.71-2.63,3.71,0C696.25,446.66,692.54,446.66,692.54,444.55Z"/><path class="cls-1" d="M484.25,694.21c0-2.11,3.71-2.64,3.71,0C488,696.31,484.25,696.84,484.25,694.21Z"/><path class="cls-1" d="M371.35,535.67c-2.65,0-2.65,3.69,0,3.16C374,538.83,374,535.67,371.35,535.67Z"/><path class="cls-1" d="M609.86,342.9c0-2.11,3.71-2.64,3.71,0C613.57,345,609.86,345,609.86,342.9Z"/><path class="cls-1" d="M566.93,400.31c-2.65,0-2.65,3.16,0,3.16C569.05,404,569.58,400.31,566.93,400.31Z"/><path class="cls-1" d="M225.07,75.86c-2.65,0-2.65,3.16,0,3.16,2.12,0,2.12-3.69,0-3.16Z"/><path class="cls-1" d="M454.57,378.71c-2.65,0-2.65,3.16,0,3.16S457.22,378.71,454.57,378.71Z"/><path class="cls-1" d="M510.22,508.81c-2.65,0-2.65,3.16,0,3.16C512.87,512.49,512.87,508.81,510.22,508.81Z"/><path class="cls-1" d="M411.63,506.7c-2.65,0-2.65,3.69,0,3.16C414.28,509.86,414.28,506.7,411.63,506.7Z"/><path class="cls-1" d="M593.43,429.8c0-2.1,3.71-2.63,3.71,0S593.43,431.91,593.43,429.8Z"/><path class="cls-1" d="M143.45,46.89c-5.83,0-5.3,9,0,9C149.28,55.32,149.28,46.89,143.45,46.89Z"/><path class="cls-1" d="M94.15,678.93c0,5.8,9,5.8,9,0,0-5.27-8.49-5.79-9,0C94.15,681.57,94.68,676.3,94.15,678.93Z"/><path class="cls-1" d="M128.61,727.39c-.53,5.79,8.48,5.79,8.48,0C137.62,722.12,128.61,721.59,128.61,727.39Z"/><path class="cls-1" d="M483.19,637.85c0,2.63,3.18,2.63,3.18,0s-3.18-2.63-3.18,0Z"/><path class="cls-1" d="M171,654.18c0,2.63,3.18,2.63,3.18,0,.53-2.11-2.65-2.11-3.18,0C171,655.23,171.54,653.65,171,654.18Z"/><path class="cls-1" d="M148.22,700c0,2.63,3.18,2.63,3.18,0,.53-2.11-2.65-2.11-3.18,0Z"/><path class="cls-1" d="M609.33,357.64c-2.12,0-2.12-3.68,0-3.68S611.45,357.64,609.33,357.64Z"/><path class="cls-1" d="M233.55,703.69c0,2.63,3.18,2.63,3.18,0A1.59,1.59,0,0,0,233.55,703.69Z"/><path class="cls-1" d="M102.11,475.63c-.53,5.79,8.48,5.79,8.48,0C110.59,470.36,102.64,469.83,102.11,475.63Z"/><path class="cls-1" d="M478.42,555.16c0,5.79,8.48,5.79,8.48,0C486.9,549.89,478.42,549.89,478.42,555.16Z"/><path class="cls-1" d="M236.73,464c-.53,5.79,8.48,5.79,8.48,0C245.74,458.77,237.26,458.24,236.73,464Z"/><path class="cls-1" d="M490.61,307.61c0,2.63,3.18,2.63,3.18,0S490.61,305,490.61,307.61Z"/><path class="cls-1" d="M469.94,404c0,2.64,3.18,2.64,3.18,0,0-2.1-2.65-2.1-3.18,0Z"/><path class="cls-1" d="M810.21,443.5c0,2.63,3.18,2.63,3.18,0A1.59,1.59,0,0,0,810.21,443.5Z"/><path class="cls-1" d="M681.94,406.1c0,2.63,3.18,2.63,3.18,0S681.94,403.47,681.94,406.1Z"/><path class="cls-1" d="M802.26,484.05c0,2.64,3.18,2.64,3.18,0C806,482,802.26,482,802.26,484.05Z"/><path class="cls-1" d="M512.87,270.74c1.59-.53,1.59,1.58.53,2.63S508.63,272.85,512.87,270.74Z"/><path class="cls-1" d="M433.36,392.93c0,2.64,3.18,2.64,3.18,0A1.59,1.59,0,0,0,433.36,392.93Z"/><path class="cls-1" d="M17.3,457.19c0,2.63,3.18,2.63,3.18,0C21,455.08,17.3,455.08,17.3,457.19Z"/><path class="cls-1" d="M541,513.55c0,2.63,3.18,2.63,3.18,0S541,510.91,541,513.55Z"/><path class="cls-1" d="M758.79,129.06c-2.65,0-2.12,3.16,0,3.16C761.44,132.74,760.91,129.06,758.79,129.06Z"/><path class="cls-1" d="M733.88,195.42c-2.65,0-2.12,3.16,0,3.16,2.65,0,2.12-3.69,0-3.16C732.82,195.42,734.94,194.89,733.88,195.42Z"/><path class="cls-1" d="M717.45,339.21c-2.65,0-2.12,3.16,0,3.16C720.63,342.37,720.1,339.21,717.45,339.21Z"/><path class="cls-1" d="M1003.66,98.51c-2.65,0-2.65,3.68,0,3.16C1006.31,101.67,1006.31,98.51,1003.66,98.51Z"/><path class="cls-1" d="M837.77,252.83c-.53,5.79,8.48,5.79,8.48,0,0-5.27-8.48-5.79-8.48,0Z"/><path class="cls-1" d="M570.64,256.52c-.53,5.79,8.48,5.79,8.48,0,.53-5.27-8.48-5.27-8.48,0Z"/><path class="cls-1" d="M62.35,474.57c0,2.64,3.18,2.64,3.18,0C65.53,472.47,62.35,471.94,62.35,474.57Z"/><path class="cls-1" d="M295,37.94c-5.83,0-5.3,9,0,9,5.83,0,5.83-9,0-9Z"/><path class="cls-1" d="M952.78,71.65c-.53,5.79,8.48,5.79,8.48,0C961.79,66.38,953.31,65.85,952.78,71.65Z"/><path class="cls-1" d="M847.84,85.87c-.53,5.79,8.48,5.79,8.48,0C856.85,80.6,848.37,80.6,847.84,85.87Z"/><path class="cls-1" d="M447.15,237.56c0,2.63,3.18,2.63,3.18,0C450.86,234.92,447.15,234.92,447.15,237.56Z"/><path class="cls-1" d="M412.16,192.26c0,2.63,3.18,2.63,3.18,0C415.87,189.63,412.16,189.63,412.16,192.26Z"/><path class="cls-1" d="M579.12,68c5.83.53,5.83-8.43.53-8.95-5.83,0-6.36,8.95-.53,8.95C581.77,68.49,576.47,68,579.12,68Z"/><path class="cls-1" d="M406.86,73.23c5.83.52,5.83-8.43.53-9C401.56,64.27,401,73.23,406.86,73.23Z"/><path class="cls-1" d="M770.45,77.44c2.12,0,2.65-3.16,0-3.16C768.33,74.28,767.8,77.44,770.45,77.44Z"/><path class="cls-1" d="M450.86,74.28c2.12,0,2.65-3.16,0-3.16C448.74,70.59,448.21,74.28,450.86,74.28Z"/><path class="cls-1" d="M427,125.37c2.12,0,2.65-3.16,0-3.16C425.41,121.68,424.88,125.37,427,125.37Z"/><path class="cls-1" d="M712.15,51.1c0,5.8,9,5.8,8.48,0C720.63,45.31,712.15,45.31,712.15,51.1Z"/><path class="cls-1" d="M630,61.64c0,5.79,9,5.79,8.48,0C638.48,55.84,630,55.84,630,61.64Z"/><path class="cls-1" d="M892.36,70.07c-2.65,0-2.65,3.16,0,3.16A1.58,1.58,0,1,0,892.36,70.07Z"/><path class="cls-1" d="M952.78,196.47c5.83,0,5.3-8.95,0-8.95C947.48,188.05,947.48,196.47,952.78,196.47Z"/><path class="cls-1" d="M831.94,467.72c5.83,0,5.3-9,0-9C826.11,458.77,826.11,467.72,831.94,467.72Z"/><path class="cls-1" d="M604,637.32c0,2.11-3.71,2.64-3.71,0S604,635.22,604,637.32Z"/><path class="cls-1" d="M616.75,584.65c2.65,0,2.65-3.16,0-3.16-2.65-.52-2.65,3.16,0,3.16Z"/><path class="cls-1" d="M874.34,204.37c2.65,0,2.65-3.16,0-3.16s-2.65,3.69,0,3.16Z"/><path class="cls-1" d="M590.25,555.68c0,2.11-3.71,2.64-3.71,0A1.86,1.86,0,1,1,590.25,555.68Z"/><path class="cls-1" d="M574.35,627.32c2.12,0,2.12,3.68,0,3.68C571.7,631,572.23,627.32,574.35,627.32Z"/><path class="cls-1" d="M413.75,489.32c0-5.79-9-5.79-9,0S413.75,495.11,413.75,489.32Z"/><path class="cls-1" d="M1020.62,182.78c0-5.79-8.48-5.79-8.48,0C1012.14,188.05,1020.62,188.05,1020.62,182.78Z"/><path class="cls-1" d="M912.5,129.06c0-2.64-3.18-2.64-3.18,0s3.18,2.63,3.18,0Z"/><path class="cls-1" d="M619.93,690c0-2.63-3.18-2.63-3.18,0-.53,2.64,2.65,2.11,3.18,0C619.93,688.94,619.4,691.05,619.93,690Z"/><path class="cls-1" d="M501.74,578.86c0-2.63-3.18-2.63-3.18,0S501.74,581.49,501.74,578.86Z"/><path class="cls-1" d="M441.32,622.05c0-2.64-3.18-2.64-3.18,0C437.6,624.16,441.32,624.16,441.32,622.05Z"/><path class="cls-1" d="M410.57,534.09c0-2.63-3.18-2.63-3.18,0C406.86,536.72,410.57,536.72,410.57,534.09Z"/><path class="cls-1" d="M894.48,200.16c-1.59.53-1.59-1.58-.53-2.63,1.06-1.58,4.24,0,.53,2.63C894,200.16,895,199.63,894.48,200.16Z"/><path class="cls-1" d="M1039.17,297.6c0-2.63-3.18-2.63-3.18,0A1.59,1.59,0,0,0,1039.17,297.6Z"/><path class="cls-1" d="M869.57,687.89c2.65,0,2.12-3.16,0-3.16C866.92,684.73,867.45,687.89,869.57,687.89Z"/><path class="cls-1" d="M145,458.24c5.83-.52,5.3-8.95-.53-8.95C139.21,449.82,139.74,458.24,145,458.24Z"/><path class="cls-1" d="M435,316c5.84-.53,5.31-9-.53-9C429.12,307.61,429.65,316.56,435,316Z"/><path class="cls-1" d="M547.32,672.08c2.65,0,2.12-3.16,0-3.16C544.67,668.92,545.2,672.08,547.32,672.08Z"/><path class="cls-1" d="M422.76,721.59c2.65,0,2.12-3.16,0-3.16C419.58,718.43,420.11,721.59,422.76,721.59Z"/><path class="cls-1" d="M840.42,659.44c2.65,0,2.65-3.68,0-3.16C837.77,656.28,837.77,659.44,840.42,659.44Z"/><path class="cls-1" d="M917.27,221.23c0-2.63-3.18-2.63-3.18,0C913.56,223.86,917.27,223.86,917.27,221.23Z"/><path class="cls-1" d="M591.84,732.13c-2.12,0-2.65,3.16,0,3.16C594,735.29,594.49,732.13,591.84,732.13Z"/><path class="cls-1" d="M1033.34,478.26c.53-5.79-8.48-5.79-8.48,0C1024.86,483.53,1033.34,483.53,1033.34,478.26Z"/><path class="cls-1" d="M983,606.77c.53-5.79-8.48-5.79-8.48,0C974,612,983,612,983,606.77Z"/><path class="cls-1" d="M895,327.62c.53-5.79-8.48-5.79-8.48,0-.53,5.27,8.48,5.8,8.48,0Z"/><path class="cls-1" d="M917.8,579.39c0-2.64-3.18-2.64-3.18,0C914.09,581.49,917.8,581.49,917.8,579.39Z"/><path class="cls-1" d="M854.73,416.63c0-2.63-3.18-2.63-3.18,0-.53,2.64,2.65,2.64,3.18,0C854.73,415.58,854.2,417.69,854.73,416.63Z"/><path class="cls-1" d="M926.81,713.69c5.83-.52,5.3-9-.53-9C921,705.27,921.51,713.69,926.81,713.69Z"/><path class="cls-1" d="M925.22,502.49c-5.83,0-5.83,8.95,0,8.42,5.83,0,5.3-9,0-8.42C922.57,502.49,927.34,502,925.22,502.49Z"/><path class="cls-1" d="M522.94,574.12c0-2.11,3.71-2.63,3.71,0A1.86,1.86,0,1,1,522.94,574.12Z"/><path class="cls-1" d="M393.08,406.1c-2.65,0-2.65,3.16,0,3.16S395.73,406.1,393.08,406.1Z"/><path class="cls-1" d="M479.48,504.59c5.83,0,5.3-8.95,0-8.95-5.83.53-5.83,9.48,0,8.95Z"/><path class="cls-1" d="M570.11,735.82c5.83,0,5.3-9,0-9-5.83.53-5.83,9.48,0,9C572.23,735.82,567.46,736.34,570.11,735.82Z"/><path class="cls-1" d="M993.06,457.72c0,5.79-8.48,5.79-8.48,0S993.06,451.92,993.06,457.72Z"/><path class="cls-1" d="M503.86,616.78c0,5.8-8.48,5.8-8.48,0S503.86,611,503.86,616.78Z"/><path class="cls-1" d="M786.36,683.15c0,2.1-3.71,2.63-3.71,0C782.65,681,786.36,681,786.36,683.15Z"/><path class="cls-1" d="M516.58,675.25c0,2.1-3.71,2.63-3.71,0C512.87,673.14,516.58,673.14,516.58,675.25Z"/><path class="cls-1" d="M540.43,627.84c0,2.11-3.71,2.64-3.71,0A1.86,1.86,0,1,1,540.43,627.84Z"/><path class="cls-1" d="M322.06,525.66c0,2.11-3.71,2.64-3.71,0A1.86,1.86,0,1,1,322.06,525.66Z"/><path class="cls-1" d="M457.22,463.51c0,2.11-3.71,2.63-3.71,0S457.22,461.4,457.22,463.51Z"/><path class="cls-1" d="M262.7,281.8c2.65,0,2.65-3.16,0-3.16C260.58,278.11,260.05,281.8,262.7,281.8Z"/><path class="cls-1" d="M369.76,355c-5.83,0-5.3,8.95,0,8.95,5.83-.52,5.83-9.48,0-8.95Z"/><path class="cls-1" d="M352.27,208.06c0-2.11,3.71-2.63,3.71,0C356.51,210.17,352.8,210.17,352.27,208.06Z"/><path class="cls-1" d="M309.34,265.47c-2.65,0-2.65,3.16,0,3.16s2.65-3.68,0-3.16Z"/><path class="cls-1" d="M197.51,243.35c-2.65,0-2.65,3.16,0,3.16C199.63,247,199.63,243.35,197.51,243.35Z"/><path class="cls-1" d="M335.84,294.44c0-2.11,3.71-2.63,3.71,0C340.08,296.55,335.84,296.55,335.84,294.44Z"/><path class="cls-1" d="M351.74,222.81c-2.12,0-2.12-3.69,0-3.69A1.85,1.85,0,1,1,351.74,222.81Z"/><path class="cls-1" d="M233,172.25c0,2.63,3.18,2.63,3.18,0C236.73,170.14,233,170.14,233,172.25Z"/><path class="cls-1" d="M212.88,269.16c0,2.63,3.18,2.63,3.18,0S212.88,266.53,212.88,269.16Z"/><path class="cls-1" d="M175.78,258.1c0,2.63,3.18,2.63,3.18,0,.53-2.64-2.65-2.11-3.18,0Z"/><path class="cls-1" d="M156.7,354.48c0-5.79-9-5.79-9,0,0,5.27,8.48,5.27,9,0Z"/><path class="cls-1" d="M177.9,181.2c5.83-.53,5.3-8.95-.53-8.95C171.54,172.77,172.07,181.73,177.9,181.2Z"/><path class="cls-1" d="M136,271.27c-2.65,0-2.65,3.16,0,3.16A1.58,1.58,0,1,0,136,271.27Z"/><path class="cls-1" d="M221.89,369.76c5.83,0,5.3-9,0-9-5.83,0-5.83,9,0,9Z"/><path class="cls-1" d="M199.63,328.68c0,2.1-3.71,2.63-3.71,0C195.92,326.57,199.63,326,199.63,328.68Z"/><path class="cls-1" d="M322.59,463.51c0,2.11-3.71,2.63-3.71,0C318.35,461.4,322.59,461.4,322.59,463.51Z"/><path class="cls-1" d="M378.77,551.47c0,2.11-3.71,2.63-3.71,0C374.53,549.36,378.77,549.36,378.77,551.47Z"/><path class="cls-1" d="M516.05,740.56c2.65,0,2.65-3.69,0-3.16-2.65-.53-2.65,3.16,0,3.16Z"/><path class="cls-1" d="M625.23,618.89c0,2.1-3.71,2.63-3.71,0A1.86,1.86,0,1,1,625.23,618.89Z"/><path class="cls-1" d="M718.51,539.88c2.65,0,2.65-3.16,0-3.16A1.58,1.58,0,1,0,718.51,539.88Z"/><path class="cls-1" d="M987.76,211.22c2.65,0,2.65-3.16,0-3.16-2.12-.53-2.12,3.16,0,3.16Z"/><path class="cls-1" d="M328.42,747.93c2.65,0,2.65-3.16,0-3.16C325.77,744.24,325.77,747.93,328.42,747.93Z"/><path class="cls-1" d="M692,510.91c0,2.11-3.71,2.64-3.71,0A1.86,1.86,0,1,1,692,510.91Z"/><path class="cls-1" d="M366.58,380.29c.53-5.79-8.48-5.79-8.48,0C357.57,385.56,366.58,385.56,366.58,380.29Z"/><path class="cls-1" d="M412.69,696.84c0-5.79-9-5.79-9,0,0,5.27,8.48,5.27,9,0C412.69,694.21,412.16,699,412.69,696.84Z"/><path class="cls-1" d="M355.45,618.89c0-2.64-3.18-2.64-3.18,0A1.59,1.59,0,0,0,355.45,618.89Z"/><path class="cls-1" d="M667.63,602c0-2.63-3.18-2.63-3.18,0C663.92,604.67,667.63,604.67,667.63,602Z"/><path class="cls-1" d="M344.85,488.79c0-2.63-3.18-2.63-3.18,0S344.85,491.43,344.85,488.79Z"/><path class="cls-1" d="M605.09,552.52c0-2.63-3.18-2.63-3.18,0S605.09,555.16,605.09,552.52Z"/><path class="cls-1" d="M661.8,685.78c.53-5.79-8.48-5.79-8.48,0-.53,5.27,8.48,5.79,8.48,0Z"/><path class="cls-1" d="M806,234.4c0-2.64-3.18-2.64-3.18,0C802.26,236.5,806,236.5,806,234.4Z"/><path class="cls-1" d="M640.6,671.56c0-2.64-3.18-2.64-3.18,0C636.89,673.66,640.6,673.66,640.6,671.56Z"/><path class="cls-1" d="M604,534.09c0-2.63-3.18-2.63-3.18,0C600.32,536.72,604,536.72,604,534.09Z"/><path class="cls-1" d="M543.08,577.28c0-2.63-3.18-2.63-3.18,0A1.59,1.59,0,0,0,543.08,577.28Z"/><path class="cls-1" d="M1015.85,371.87c-1.59.52-1.59-1.58-.53-2.64,1.59-1.58,3.71,0,.53,2.64Z"/><path class="cls-1" d="M298.21,743.19c0-2.63-3.18-2.63-3.18,0C294.5,745.3,298.21,745.3,298.21,743.19Z"/><path class="cls-1" d="M525.59,545.68c5.83-.53,5.3-9-.53-9-5.83.53-5.3,9,.53,9Z"/><path class="cls-1" d="M590.25,585.18c5.83-.53,5.3-8.95-.53-8.95C583.89,576.75,584.42,585.18,590.25,585.18Z"/><path class="cls-1" d="M568,653.65c2.65,0,2.12-3.16,0-3.16C565.34,650.49,565.87,653.65,568,653.65Z"/><path class="cls-1" d="M524.53,676.83c2.65,0,2.12-3.17,0-3.17C521.88,673.66,522.41,676.83,524.53,676.83Z"/><path class="cls-1" d="M528.77,713.69c.53-5.79-8.48-5.79-8.48,0C519.76,719,528.24,719.49,528.77,713.69Z"/><path class="cls-1" d="M846.78,286.54c.53-5.79-8.48-5.79-8.48,0-.53,5.27,8,5.27,8.48,0C846.78,284.43,846.25,288.65,846.78,286.54Z"/><path class="cls-1" d="M1002.07,315.51c0-2.64-3.18-2.64-3.18,0S1002.07,318.14,1002.07,315.51Z"/><path class="cls-1" d="M653.32,419.8c-5.83-.53-5.83,8.42-.53,8.95C658.62,428.75,659.15,419.8,653.32,419.8Z"/><path class="cls-1" d="M806,513c-2.12,0-2.65,3.16,0,3.16C808.09,516.71,808.62,513,806,513Z"/><path class="cls-1" d="M788,568.85c2.65,0,2.65-3.16,0-3.16S785.3,568.85,788,568.85Z"/><path class="cls-1" d="M985.64,374c0-5.79-9-5.79-8.48,0C977.16,379.77,985.64,379.77,985.64,374Z"/><path class="cls-1" d="M980.34,607.83c2.12,0,2.65,3.68,0,3.68C978.22,612,978.22,608.35,980.34,607.83Z"/><path class="cls-1" d="M939,635.22c0-5.8-9-5.8-8.48,0C930.52,641,939,641,939,635.22Z"/><path class="cls-1" d="M887.06,686.31c0,5.79,9,5.26,9,0s-9-5.27-9,0Z"/><path class="cls-1" d="M839.89,585.71a4.22,4.22,0,1,1,0-8.43C845.19,577.28,845.72,585.71,839.89,585.71Z"/><path class="cls-1" d="M764.62,602.56c-2.12,0-2.65-3.69,0-3.69C766.74,598.35,766.74,602.56,764.62,602.56Z"/><path class="cls-1" d="M808.09,541.46c-2.12,0-2.65-3.68,0-3.68C810.74,537.25,810.74,540.94,808.09,541.46Z"/><path class="cls-1" d="M578.06,6.86c0,2.64,3.18,2.64,3.18,0A1.59,1.59,0,0,0,578.06,6.86Z"/><path class="cls-1" d="M524.53,86.92c2.65,0,2.65-3.16,0-3.16s-2.65,3.69,0,3.16C525.59,86.92,523.47,87.45,524.53,86.92Z"/><path class="cls-1" d="M635.3,118c2.65,0,2.65-3.69,0-3.16C632.65,114.31,632.65,118,635.3,118Z"/><path class="cls-1" d="M649.61,52.16c.53-5.8-8.48-5.8-8.48,0-.53,5.26,8.48,5.79,8.48,0Z"/><path class="cls-1" d="M601.38,202.79c0-2.63-3.18-2.63-3.18,0S601.38,205.43,601.38,202.79Z"/><path class="cls-1" d="M601.91,127c5.83,0,5.3,9,0,8.43S596.08,126.42,601.91,127Z"/><path class="cls-1" d="M544.14,131.16c.53-5.79-8.48-5.79-8.48,0,0,5.27,8.48,5.8,8.48,0C544.67,128.53,544.14,133.8,544.14,131.16Z"/><path class="cls-1" d="M524.53,158c0-2.63-3.18-2.63-3.18,0S524.53,160.66,524.53,158Z"/><path class="cls-1" d="M592.37,174.35c2.12,0,2.12,3.69,0,3.69C589.72,178.57,589.72,174.35,592.37,174.35Z"/><path class="cls-1" d="M478.42,179.09c5.83,0,5.3-9,0-9C472.59,170.67,472.59,179.09,478.42,179.09Z"/><path class="cls-1" d="M465.17,143.8c0,2.64,3.71,2.64,3.18,0A1.59,1.59,0,0,0,465.17,143.8Z"/><path class="cls-1" d="M714.27,631.53c-2.12,0-2.65-3.69,0-3.69C716.39,627.32,716.39,631.53,714.27,631.53Z"/><path class="cls-1" d="M758.26,485.11c0,5.79,9,5.26,9,0s-9-5.27-9,0Z"/><path class="cls-1" d="M1012.67,670.5c0,5.8,9,5.27,9,0,0-5.79-9-5.79-9,0Z"/><path class="cls-1" d="M827.7,372.92c5.83.53,5.83-8.43,0-8.43-5.3-.53-5.83,8.43,0,8.43Z"/><path class="cls-1" d="M919.39,301.81c5.83.53,5.83-8.42,0-8.42-5.3,0-5.83,8.42,0,8.42C921.51,302.34,916.74,301.81,919.39,301.81Z"/><path class="cls-1" d="M866.92,589.39c5.83,0,5.83-8.95,0-8.95-5.3,0-5.83,8.95,0,8.95Z"/><path class="cls-1" d="M998.36,435.6c2.65,0,2.65-3.16,0-3.16C995.71,431.91,995.71,435.6,998.36,435.6Z"/><path class="cls-1" d="M661.27,646.8c2.65,0,2.65-3.16,0-3.16C658.62,643.12,658.62,646.8,661.27,646.8Z"/><path class="cls-1" d="M883.35,233.34c2.65,0,2.65-3.16,0-3.16A1.58,1.58,0,1,0,883.35,233.34Z"/><path class="cls-1" d="M778.94,437.18c2.65,0,2.65-3.16,0-3.16C776.29,433.49,776.29,437.18,778.94,437.18Z"/><path class="cls-1" d="M928.4,142.75c2.65,0,2.65-3.16,0-3.16-2.65-.53-2.12,2.63,0,3.16C929.46,142.75,927.34,142.22,928.4,142.75Z"/><path class="cls-1" d="M968.15,747.93c-.53-1.58,1.59-1.58,2.65-.53,1.59,1.06,0,4.22-2.65.53C968.15,747.4,968.68,748.46,968.15,747.93Z"/><path class="cls-1" d="M874.34,611.51c2.65,0,2.65-3.16,0-3.16S872.22,611.51,874.34,611.51Z"/><path class="cls-1" d="M380.89,671.56c0,2.63,3.18,2.1,3.18,0C384.6,668.92,380.89,668.92,380.89,671.56Z"/><path class="cls-1" d="M872.22,155.39c.53,5.79,9,5.27,9-.53C880.7,149.6,871.69,150.12,872.22,155.39Z"/><path class="cls-1" d="M1027.51,451.92c0,2.64,3.18,2.11,3.18,0C1030.69,449.29,1027.51,449.82,1027.51,451.92Z"/><path class="cls-1" d="M410,642.06c0,2.64,3.71,2.64,3.18,0A1.59,1.59,0,0,0,410,642.06Z"/><path class="cls-1" d="M954.37,690.52c5.83.53,5.83-8.43,0-8.43-5.3-.52-5.83,8.43,0,8.43C956.49,691.05,951.72,690.52,954.37,690.52Z"/><path class="cls-1" d="M210.23,694.73c.53-5.79-8.48-5.79-9-.52C200.69,700,209.7,700.53,210.23,694.73Z"/><path class="cls-1" d="M198,468.78c0-2.11-3.18-2.64-3.18,0C194.86,470.89,198,471.41,198,468.78Z"/><path class="cls-1" d="M786.89,705.79c0-2.1-3.18-2.63-3.18,0C783.18,707.9,786.89,708.43,786.89,705.79Z"/></svg>